/* XPM */
static const xpm_row_t nine_xpm[] = {
/* columns rows colors chars-per-pixel */
"28 62 2 1 ",
"  c #FFFFFF",
". c #00B140",
/* pixels */
".......              .......",
".......              .......",
".......              .......",
".......              .......",
".......              .......",
".......              .......",
".......              .......",
"       ..............       ",
"       ..............       ",
"       ..............       ",
"       ..............       ",
"       ..............       ",
"       ..............       ",
"       ..............       ",
"       ..............       ",
"       ..............       ",
"       ..............       ",
"       ..............       ",
"       ..............       ",
"       ..............       ",
"       ..............       ",
"       ..............       ",
"       ..............       ",
"       ..............       ",
"       ..............       ",
"       ..............       ",
"       ..............       ",
"       .............        ",
".......                     ",
".......                     ",
".......                     ",
".......                     ",
".......                     ",
".......                     ",
".......                     ",
".....................       ",
".....................       ",
".....................       ",
".....................       ",
".....................       ",
".....................       ",
".....................       ",
".....................       ",
".....................       ",
".....................       ",
".....................       ",
".....................       ",
".....................       ",
"       ..............       ",
"       ..............       ",
"       ..............       ",
"       ..............       ",
"       ..............       ",
"       ..............       ",
"       ..............       ",
".......              .......",
".......              .......",
".......              .......",
".......              .......",
".......              .......",
".......              .......",
".......              .......",
};
