/* XPM */
static const xpm_row_t dots_xpm[] = {
/* columns rows colors chars-per-pixel */
"28 62 2 1 ",
"  c #00B140",
". c #FFFFFF",
/* pixels */
"                            ",
"                            ",
"                            ",
"                            ",
"                            ",
"                            ",
"                            ",
"                            ",
"                            ",
"                            ",
"                            ",
"                            ",
"                            ",
"                            ",
"           .......          ",
"           .......          ",
"           .......          ",
"           .......          ",
"           .......          ",
"           .......          ",
"           .......          ",
"                            ",
"                            ",
"                            ",
"                            ",
"                            ",
"                            ",
"                            ",
"                            ",
"                            ",
"                            ",
"                            ",
"                            ",
"                            ",
"                            ",
"                            ",
"                            ",
"                            ",
"                            ",
"                            ",
"                            ",
"           .......          ",
"           .......          ",
"           .......          ",
"           .......          ",
"           .......          ",
"           .......          ",
"           .......          ",
"                            ",
"                            ",
"                            ",
"                            ",
"                            ",
"                            ",
"                            ",
"                            ",
"                            ",
"                            ",
"                            ",
"                            ",
"                            ",
"                            "
};
