/* XPM */
static const xpm_row_t black_king_xpm[] = {
/* columns rows colors chars-per-pixel */
"86 86 14 1 ",
"  c #141414",
". c #151515",
"X c #161616",
"o c #171717",
"O c #181818",
"+ c #191919",
"@ c #1B1B1B",
"# c #1C1C1C",
"$ c #1D1D1D",
"% c #202020",
"& c #232323",
"* c #252525",
"= c #262626",
"- c #00B140",
/* pixels */
"--------------------------------------------------------------------------------------",
"-------------------------------------==========---------------------------------------",
"-------------------------------------==========---------------------------------------",
"-------------------------------------==========---------------------------------------",
"-------------------------------------==========---------------------------------------",
"-------------------------------------==========---------------------------------------",
"--------------------------------------========----------------------------------------",
"--------------------------------------=========-======--------------------------------",
"------------------------------========================--------------------------------",
"------------------------------&=======================--------------------------------",
"------------------------------========================--------------------------------",
"------------------------------========================--------------------------------",
"------------------------------========================--------------------------------",
"-------------------------------=======================--------------------------------",
"-------------------------------=======================--------------------------------",
"-------------------------------=======================--------------------------------",
"-------------------------------=======================--------------------------------",
"-------------------------------===----=========----===--------------------------------",
"--------------------------------------=========---------------------------------------",
"-------------------------------------===========--------------------------------------",
"-------------------------------------===========--------------------------------------",
"-------------------========----------===========--------===========-------------------",
"---------------===============------============-----=================----------------",
"-------------===================----=============---====================--------------",
"------------======================--=============-=======================-------------",
"-----------================================================================-----------",
"----------==================================================================----------",
"---------===================================================================----------",
"--------=====================================================================---------",
"-------=======================================================================--------",
"-------=======================================================================--------",
"------========================================================================&-------",
"------=========================================================================-------",
"------=========================================================================o------",
"------=========================================================================@------",
"-----================---------=========================---------===============o------",
"-----===============-------------===================------------==============&o------",
"-----===============--------------================---------------=============$@------",
"-----===============---------------===============---------------=============$@------",
"-----===============---------------===============--------------==============@@------",
"-----===============---------------===============--------------&============&@$------",
"------==============---------------===============--------------=============$@@------",
"------==============---------------===============--------------=============@@-------",
"------===============--------------==============&--------------============$@@-------",
"------===============--------------===============--------------===========&@o@-------",
"-------===============-------------===============-------------============$@@--------",
"-------===============-------------===============------------============&@@@--------",
"--------===============------------===============-----------============&@@@$--------",
"--------================-----------==============&----------=============&@@$---------",
"---------================----------===============---------=============$@o@----------",
"---------==================--------===============--------=============$@@@@----------",
"----------==================-------===============-------==============@o@@-----------",
"-----------==================------===============------==============@@@@$-----------",
"-----------==========================================================$@o@@------------",
"------------========================================================$@@@@-------------",
"-------------======================================================@@@@@--------------",
"--------------===================================================&$@o@@---------------",
"---------------=================================================&o@@@@$---------------",
"----------------===============================================$@@@@o$----------------",
"-----------------=============================================$@@o@@@-----------------",
"------------------===========================================@o@@@@@------------------",
"-------------------=======================================&@@@@@@@@-------------------",
"--------------------=====================================$@@@@o@@@--------------------",
"---------------------==================================$@@@o@o@@----------------------",
"----------------------==============================&$@@@@@@@o@-----------------------",
"-------------========================================@@       @@@@@@@oo$--------------",
"-----------==============================================@@ o@@@@o@o@o@@ -------------",
"----------===================================================&$$@@@@@@@@@@------------",
"---------========================================================$$@@@o@o@@-----------",
"---------==========================================================&@@@@@@@o----------",
"--------=============================================================@o@o@o@----------",
"--------=============================================================&@@@@@@@---------",
"--------==============================================================$@@@o@o---------",
"--------==============================================================&@@@@@o---------",
"--------===============================================================@@@o@o---------",
"--------===============================================================$@o@@o---------",
"--------===============================================================$o@@@o---------",
"--------===============================================================$@@@oo---------",
"--------===============================================================&o@o@o---------",
"--------================================================================@@@@o---------",
"--------================================================================@o@@o---------",
"--------================================================================@@@@o---------",
"--------------------------------------------------------------------------------------",
"--------------------------------------------------------------------------------------",
"--------------------------------------------------------------------------------------",
"--------------------------------------------------------------------------------------"
};
