/* XPM */
static const xpm_row_t white_knight_xpm[] = {
/* columns rows colors chars-per-pixel */
"86 86 29 1 ",
"  c #00B140",
". c #000000",
"X c #757575",
"o c #777777",
"O c #797979",
"+ c #808080",
"@ c #868686",
"# c #8C8C8C",
"$ c #959595",
"% c #9F9F9F",
"& c #A0A0A0",
"* c #A4A4A4",
"= c #A8A8A8",
"- c #ACACAC",
"; c #B0B0B0",
": c #B6B6B6",
"> c #B7B7B7",
", c #BABABA",
"< c #BBBBBB",
"1 c #C3C3C3",
"2 c #C5C5C5",
"3 c #C7C7C7",
"4 c #CACACA",
"5 c #D0D0D0",
"6 c #D8D8D8",
"7 c #DADADA",
"8 c #DCDCDC",
"9 c #DEDEDE",
"0 c #FFFFFF",
/* pixels */
"                                                                                      ",
"                                                                                      ",
"                                0                                                     ",
"                              0000                                                    ",
"                              00000                                                   ",
"                             0000000                                                  ",
"                             00000000                                                 ",
"                             000000000                                                ",
"                             0000000000                                               ",
"                             00000000000                                              ",
"                             000000000000                                             ",
"                            00000000000000000                                         ",
"                           0000000000000000000000                                     ",
"                          00000000000000000000000000                                  ",
"                         00000000000000000000000000000                                ",
"                        00000000000000000000000000000000                              ",
"                       00000000000000000000000000000000000                            ",
"                      0000000000000000000000000000000000000                           ",
"                      00000000000000000000000000000000000000                          ",
"                     00000000000010000000000000000000000000000                        ",
"                     00000000000+..+000000000000000000000000000                       ",
"                    000000000001....+000000000000000000000000000                      ",
"                    00000000000X.....1000000000000000000000000008                     ",
"                    0000000000+.....+0000000000000000000000000000>                    ",
"                    0000000000.XX+10000000000000000000000000000009@                   ",
"                    000000000+1000000000000000000000000000000000002                   ",
"                   000000000000000000000000000000000000000000000009%                  ",
"                   000000000000000000000000000000000000000000000000;                  ",
"                  00000000000000000000000000000000000000000000000002&                 ",
"                  00000000000000000000000000000000000000000000000009;                 ",
"                 000000000000000000000000000000000000000000000000000=&                ",
"                00000000000000000000000000000000000000000000000000002;                ",
"               000000000000000000000000000000009000000000000000000005;%               ",
"               00000000000000000000000000000005=000000000000000000009=;               ",
"              00000000000000000000000000000005=2000000000000000000009=;               ",
"             00000000000000000000000000000092==5000000000000000000000;=%              ",
"            000000000000000000000000000000 ;==50000000000000000000000;=%              ",
"           0000000000000000000000000000000  =200000000000000000000000=;;              ",
"           000000000000000000000000000000   5000000000000000000000000=;=              ",
"          000000000000000000000000000000    0000000000000000000000000;=;              ",
"          00000000000000000000000000000     0000000000000000000000000=;=&             ",
"         00000000000000000000000000000       000000000000000000000009;=;&             ",
"         000000000000000000000000000        0000000000000000000000009=;=>             ",
"         00000000000000000022900000         0000000000000000000000005;=;&             ",
"        0000000000000000005==200            0000000000000000000000006=;=&             ",
"        0000000000000000002;,              0000000000000000000000000;;=;&             ",
"        000000000000000000                00000000000000000000000009=;;=&             ",
"          000000000000000                000000000000000000000000005;==;&             ",
"           0000000000000                000000000000000000000000000=;=;=&             ",
"            000000000000               0000000000000000000000000005;=;=;&             ",
"              000000000               00000000000000000000000000006=;=;=>             ",
"                000000               00000000000000000000000000000;;=;=;,             ",
"                                    000000000000000000000000000005;==;=;              ",
"                                  0000000000000000000000000000000;=;;=;=              ",
"                                 00000000000000000000000000000005==;=;;>              ",
"                                00000000000000000000000000000006;=;=;==1              ",
"                               00000000000000000000000000000000;=;=;=;=               ",
"                               00000000000000000000000000000006=;=;=;=;               ",
"                              00000000000000000000000000000005;==;=;=;%               ",
"                             00000000000000000000000000000009;=;;=;=;=,               ",
"                            00000000000000000000000000000000=;=;=;=;;=                ",
"                            00000000000000000000000000000005;=;=;=;==;                ",
"                            0000000000000000000000000000005;=;=;=;=;;%                ",
"                           0000000000000000000000000000006;=;=;=;=;=;,                ",
"                           000000000000000000000000000006;=;=;;=;=;=;                 ",
"                          00000000000000000000000000000064,*@oOOOOOOoo@               ",
"                00000000000000000000000000000000000000000000094>$OOOO=;=;@            ",
"              0000000000000000000000000000000000000000000000000009>$$;=;=;&           ",
"             000000000000000000000000000000000000000000000000000000064=;;=;=          ",
"            00000000000000000000000000000000000000000000000000000000006==;=;&         ",
"            000000000000000000000000000000000000000000000000000000000006;=;=;         ",
"           00000000000000000000000000000000000000000000000000000000000002;=;=>        ",
"           00000000000000000000000000000000000000000000000000000000000009=;=;%        ",
"           00000000000000000000000000000000000000000000000000000000000000;=;=;        ",
"           000000000000000000000000000000000000000000000000000000000000002;=;=        ",
"           000000000000000000000000000000000000000000000000000000000000004=;=;        ",
"           000000000000000000000000000000000000000000000000000000000000002;=;=        ",
"           000000000000000000000000000000000000000000000000000000000000006=;=;        ",
"           000000000000000000000000000000000000000000000000000000000000006;=;=        ",
"           000000000000000000000000000000000000000000000000000000000000006=;=;        ",
"           000000000000000000000000000000000000000000000000000000000000006;=;=        ",
"           000000000000000000000000000000000000000000000000000000000000006=;=;        ",
"                                                                                      ",
"                                                                                      ",
"                                                                                      ",
"                                                                                      "
};
