/* XPM */
static const xpm_row_t white_rook_xpm[] = {
/* columns rows colors chars-per-pixel */
"86 86 28 1 ",
"  c #00B140",
". c #767676",
"X c #808080",
"o c #838383",
"O c #878787",
"+ c #8A8A8A",
"@ c #8E8E8E",
"# c #959595",
"$ c #9A9A9A",
"% c #A4A4A4",
"& c #A9A9A9",
"* c #ACACAC",
"= c #B1B1B1",
"- c #B4B4B4",
"; c #B6B6B6",
": c #B7B7B7",
"> c #BBBBBB",
", c #C0C0C0",
"< c #C3C3C3",
"1 c #C6C6C6",
"2 c #C9C9C9",
"3 c #CECECE",
"4 c #D5D5D5",
"5 c #D8D8D8",
"6 c #DDDDDD",
"7 c #EAEAEA",
"8 c #EFEFEF",
"9 c #FFFFFF",
/* pixels */
"                                                                                      ",
"                                                                                      ",
"                                                                                      ",
"                                       99999999                                       ",
"                                    9999999999999                                     ",
"                      99999         99999999999999         9999                       ",
"                   99999999         99999999999999        9999999                     ",
"                  999999999         99999999999999        999999944                   ",
"                 9999999999         99999999999999        99999994&&;                 ",
"                99999999999         99999999999999        9999999,&&$                 ",
"                999999999999        99999999999999        9999999&&&$                 ",
"                 99999999999       999999999999999        9999999&&&;                 ",
"                 99999999999       999999999999999       99999997&&&>                 ",
"                 99999999999       999999999999999       99999997&&&;                 ",
"                 99999999999       999999999999999       99999994&&&                  ",
"                 999999999999      999999999999999       99999994&&&                  ",
"                 999999999999999999999999999999999999999999999994&&&                  ",
"                 99999999999999999999999999999999999999999999999,&&&                  ",
"                 99999999999999999999999999999999999999999999999&&&&                  ",
"                 99999999999999999999999999999999999999999999997&&&&                  ",
"                 99999999999999999999999999999999999999999999994&&&&                  ",
"                 99999999999999999999999999999999999999999999994&&&&                  ",
"                 9999999999999999999999999999999999999999999999&&&&$                  ",
"                 9999999999999999999999999999999999999999999994&&&&;                  ",
"                  99999999999999999999999999999999999999999999&&&&&                   ",
"                  9999999999999999999999999999999999999999999,&&&&;                   ",
"                   99999999999999999999999999999999999999997,&&&&>                    ",
"                    9999999999999999999999999999999999995=@+&&&&;                     ",
"                      999999999999999955555555555522;%o....XX$$                       ",
"                         999999999999999755====&=&==&======1                          ",
"                         99999999999999999999551===&=====&==                          ",
"                         9999999999999999999999995====&===&=                          ",
"                        9999999999999999999999999995==&===&=                          ",
"                        999999999999999999999999999995===&==3                         ",
"                        9999999999999999999999999999995&==&=;                         ",
"                        99999999999999999999999999999991====1                         ",
"                        99999999999999999999999999999997===&=                         ",
"                       999999999999999999999999999999999,====                         ",
"                       9999999999999999999999999999999991====3                        ",
"                       9999999999999999999999999999999994===&;                        ",
"                       9999999999999999999999999999999998=&===                        ",
"                       9999999999999999999999999999999997=====                        ",
"                       9999999999999999999999999999999998=&==&                        ",
"                      99999999999999999999999999999999998=====3                       ",
"                      99999999999999999999999999999999997==&=&>                       ",
"                      99999999999999999999999999999999997=====1                       ",
"                      99999999999999999999999999999999998=====&                       ",
"                      99999999999999999999999999999999997===&==                       ",
"                      99999999999999999999999999999999997==&===                       ",
"                      99999999999999999999999999999999994======>                      ",
"                     999999999999999999999999999999999995=====&>                      ",
"                     999999999999999999999999999999999995=&===&;                      ",
"                     999999999999999999999999999999999994======;                      ",
"                     999999999999999999999999999999999995==&&===                      ",
"                     999999999999999999999999999999999995===&=&=                      ",
"                     999999999999999999999999999999999995=======                      ",
"                     999999999999999999999999999999999995====&==                      ",
"                     999999999999999999999999999999999995&&=====                      ",
"                     999999999999999999999999999999999991&=====;                      ",
"                     999999999999999999999999999999999991=====&>                      ",
"                     999999999999999999999999999999999991&=====>                      ",
"                     999999999999999999999999999999999995===&==                       ",
"                      99999999999999999999999999999999995==&=&=                       ",
"               9999999999999999999999999999999999999999971===========                 ",
"            999999999999999999999999999999999999999999999951@O@=======15              ",
"           9999999999999999999999999999999999999999999999999984=&==&=&===5            ",
"          99999999999999999999999999999999999999999999999999999985==&=&=&=4           ",
"         99999999999999999999999999999999999999999999999999999999995=======4          ",
"         999999999999999999999999999999999999999999999999999999999995=======          ",
"         9999999999999999999999999999999999999999999999999999999999995=&=&=&6         ",
"        99999999999999999999999999999999999999999999999999999999999999====&=;         ",
"        999999999999999999999999999999999999999999999999999999999999991======         ",
"        999999999999999999999999999999999999999999999999999999999999997=&====         ",
"        999999999999999999999999999999999999999999999999999999999999997====&=         ",
"        999999999999999999999999999999999999999999999999999999999999999=====&         ",
"        9999999999999999999999999999999999999999999999999999999999999991=&===         ",
"        999999999999999999999999999999999999999999999999999999999999999,==&==         ",
"        9999999999999999999999999999999999999999999999999999999999999991=&===         ",
"        9999999999999999999999999999999999999999999999999999999999999991==&==         ",
"        999999999999999999999999999999999999999999999999999999999999999,=====         ",
"                                                                                      ",
"                                                                                      ",
"                                                                                      ",
"                                                                                      ",
"                                                                                      ",
"                                                                                      "
};
