/* XPM */
static const xpm_row_t white_queen_xpm[] = {
/* columns rows colors chars-per-pixel */
"86 86 25 1 ",
"  c #00B140",
". c #808080",
"X c #838383",
"o c #878787",
"O c #8B8B8B",
"+ c #C7C7C7",
"@ c #9D9D9D",
"# c #A0A0A0",
"$ c #A8A8A8",
"% c #AFAFAF",
"& c #B0B0B0",
"* c #B4B4B4",
"= c #B6B6B6",
"- c #B9B9B9",
"; c #BBBBBB",
": c #C0C0C0",
"> c #C7C7C7",
", c #CBCBCB",
"< c #CECECE",
"1 c #D0D0D0",
"2 c #D8D8D8",
"3 c #DADADA",
"4 c #DCDCDC",
"5 c #DEDEDE",
"6 c #FFFFFF",
/* pixels */
"                                                                                      ",
"                                                                                      ",
"                                                                                      ",
"                                                                                      ",
"                                                                                      ",
"                                                                                      ",
"                             6666                   6666                              ",
"                           66666666               666666666                           ",
"                          66666666666            66666666666                          ",
"                         666666666666            666666666666                         ",
"                         6666666666666          6666666666666                         ",
"                        66666666666666          6666666666666<                        ",
"                        66666666666666,        66666666666666>                        ",
"                        66666666666665,        66666666666665%                        ",
"                        66666666666661-        66666666666662%                        ",
"                        6666666666661$-        6666666666666%%                        ",
"                        666666666665$$          666666666662%-                        ",
"                         666666666:$$-           6666666662%%                         ",
"                          66666666>$%            66666665>%%;                         ",
"                           66666665$             66666>%%%%                           ",
"                             666666:=            66666>%%#                            ",
"           66                6666665$            66666>%-              6666           ",
"         6666666             6666666>2          6666662%=            66666666         ",
"       6666666666            66666665%          6666665%=           66666666666       ",
"       66666666666           66666666$          6666665%>           666666666666      ",
"      6666666666665          6666666614        66666666%%          6666666666666      ",
"      66666666666624         666666666:        66666666>%          66666666666666     ",
"     666666666666624         666666666:        66666666>%         666666666666666     ",
"     6666666666666>2         6666666665%      6666666662%         666666666666666     ",
"     6666666666666%2        66666666666>      6666666665%         666666666666661     ",
"     6666666666662%<        6666666666654     6666666665%         666666666666664     ",
"      66666666666%%         666666666666,     6666666666%          6666666666661-     ",
"      6666666666>%2         6666666666665    66666666666>2         666666666661$      ",
"       6666666666>%2        66666666666664   66666666666>2        666666666661$=      ",
"        66666666662%2       66666666666665   666666666665;       6666666511:$$-       ",
"          6666666662%       66666666666665  6666666666665;      666666661$$@@         ",
"            666666662>      66666666666666, 6666666666666<      66666666$$-           ",
"            6666666662>     66666666666666566666666666666=     666666661$$            ",
"             6666666665>    66666666666666666666666666666<    6666666661$-            ",
"             666666666664   66666666666666666666666666666<   6666666666$$             ",
"              666666666666  666666666666666666666666666666  66666666661$X             ",
"              6666666666666 666666666666666666666666666666 666666666661$-             ",
"              66666666666666666666666666666666666666666666666666666666$$              ",
"               6666666666666666666666666666666666666666666666666666661$-              ",
"               666666666666666666666666666666666666666666666666666666:$               ",
"               666666666666666666666666666666666666666666666666666666$X               ",
"                66666666666666666666666666666666666666666666666666661$-               ",
"                6666666666666666666666666666666666666666666666666666$$                ",
"                 666666666666666666666666666666666666666666666666665$-                ",
"                 666666666666666666666666666666666666666666666666661$                 ",
"                 66666666666666666666666666666666666666666666666666$X                 ",
"                  6666666666666666666666666666666666666666666666661$-                 ",
"                  6666666666666666666666666666666666666666666666661$                  ",
"                   66666666666666666666666666666666666666666666666$@                  ",
"                   66666666666666666666666666666666666666666666661$                   ",
"                   6666666666666666666666666666666666666666666666$X                   ",
"                    666666666666666666666666666666666666666666661$-                   ",
"                    66666666666666666666666666666666666666666666$$                    ",
"                     6666666666666666666666666666666666666666661$@                    ",
"                     666666666666666666666666666666666666666661$$                     ",
"                     66666666666666666666666666666666666666665$$@                     ",
"                      666666666666666666666666666666666666665$$$-                     ",
"                      6666666666666666666666666666666666665:$$$$                      ",
"               6666666666666666666666666666666666666661=O.......+@@@@-                ",
"            6666666666666666666666666666666666666666666661=o...o$$$$$$$X              ",
"           66666666666666666666666666666666666666666666666661%o$$$$$$$$$$-            ",
"          6666666666666666666666666666666666666666666666666666661$$$$$$$$$            ",
"          666666666666666666666666666666666666666666666666666666661$$$$$$$@           ",
"         66666666666666666666666666666666666666666666666666666666661$$$$$$$           ",
"         666666666666666666666666666666666666666666666666666666666665$$$$$$%          ",
"         6666666666666666666666666666666666666666666666666666666666665$$$$$$          ",
"        666666666666666666666666666666666666666666666666666666666666661$$$$$          ",
"        666666666666666666666666666666666666666666666666666666666666666:$$$$          ",
"        6666666666666666666666666666666666666666666666666666666666666661$$$$          ",
"        6666666666666666666666666666666666666666666666666666666666666665$$$$          ",
"        6666666666666666666666666666666666666666666666666666666666666666$$$$          ",
"        6666666666666666666666666666666666666666666666666666666666666666:$$$          ",
"        6666666666666666666666666666666666666666666666666666666666666666:$$$          ",
"        6666666666666666666666666666666666666666666666666666666666666666:$$$          ",
"        66666666666666666666666666666666666666666666666666666666666666661$$$          ",
"                                                                                      ",
"                                                                                      ",
"                                                                                      ",
"                                                                                      ",
"                                                                                      ",
"                                                                                      "
};
