/* XPM */
static const xpm_row_t white_bishop_xpm[] = {
/* columns rows colors chars-per-pixel */
"86 86 21 1 ",
"  c #00B140",
". c #868686",
"X c #959595",
"o c #999999",
"O c #9D9D9D",
"+ c #9F9F9F",
"@ c #A4A4A4",
"# c #A8A8A8",
"$ c #ACACAC",
"% c #AFAFAF",
"& c #B6B6B6",
"* c #BBBBBB",
"= c #C3C3C3",
"- c #C9C9C9",
"; c #CECECE",
": c #D4D4D4",
"> c #D8D8D8",
", c #DADADA",
"< c #DEDEDE",
"1 c #E0E0E0",
"2 c #FFFFFF",
/* pixels */
"                                                                                      ",
"                                                                                      ",
"                                                                                      ",
"                                        22222                                         ",
"                                       22222222                                       ",
"                                      2222222221                                      ",
"                                     2222222222:%                                     ",
"                                    22222222222#&                                     ",
"                                    2222222222:#                                      ",
"                                    2222222222#:                                      ",
"                                    222222222:#&                                      ",
"                                    222222222:#                                       ",
"                                    222222221#&                                       ",
"                                     2222222:#                                        ",
"                                      222222#&                                        ",
"                                       2222:#                                         ",
"                                     222222#&                                         ",
"                                   2222222:#&                                         ",
"                                 222222222=O                                          ",
"                               2222222222:#&          2                               ",
"                              22222222222:#          2222                             ",
"                             222222222222#&          22222                            ",
"                            222222222222:#&          222222                           ",
"                           2222222222222##          22222222                          ",
"                           222222222222:#O          22222222                          ",
"                          2222222222222:#&          222222222                         ",
"                         22222222222222##          22222222222                        ",
"                         2222222222222:#O          22222222222                        ",
"                        22222222222222:#O          222222222222                       ",
"                       222222222222222=#&         22222222222222                      ",
"                       222222222222222=#          22222222222222                      ",
"                       222222222222222=#          22222222222222                      ",
"                      2222222222222222=O          222222222222222                     ",
"                      2222222222222222#O         2222222222222222                     ",
"                      2222222222222222#&         2222222222222222                     ",
"                     22222222222222222#          22222222222222222                    ",
"                     22222222222222222#          22222222222222222                    ",
"                     22222222222222222#         222222222222222222                    ",
"                     22222222222222222#         222222222222222222                    ",
"                    222222222222222222O         222222222222222222                    ",
"                    222222222222222222O         222222222222222222                    ",
"                    222222222222222222O         2222222222222222222                   ",
"                    222222222222222222&         2222222222222222222                   ",
"                    222222222222222222&         2222222222222222222                   ",
"                    2222222222222222222         2222222222222222222                   ",
"                    2222222222222222222222222222222222222222222222<                   ",
"                    2222222222222222222222222222222222222222222222;                   ",
"                    2222222222222222222222222222222222222222222222@                   ",
"                    222222222222222222222222222222222222222222222>O                   ",
"                     22222222222222222222222222222222222222222222:                    ",
"                     2222222222222222222222222222222222222222222>%                    ",
"                     2222222222222222222222222222222222222222222#%                    ",
"                     222222222222222222222222222222222222222222>#.                    ",
"                     22222222222222222222222222222222222222222:%%O                    ",
"                      2222222222222222222222222222222222222221#%%                     ",
"                      222222222222222222222222222222222222221#%#.                     ",
"                      2222222222222222222222222222222222222:%#%#&                     ",
"                       22222222222222222222222222222222222:%#%#%                      ",
"                       2222222222222222222222222222222221-%##%%&                      ",
"                        22222222222222222222222222222221%##%%#%                       ",
"                        222222222222222222222222222221-%%#%###*                       ",
"                         222222222222222222222222222:%%##%#%%.                        ",
"                          2222222222222222222222221=%#%#%#%#%                         ",
"                           2222222222222222222221=%##%#%#%#%&                         ",
"                           222222222222222222221--%#%#%#%#%;                          ",
"            222222222222222222222222222222222222:::=O@@@X.@==========:::              ",
"           222222222222222222222222222222222222222222221:::=#############:            ",
"          2222222222222222222222222222222222222222222222222221::###########>          ",
"         22222222222222222222222222222222222222222222222222222222:##########>         ",
"        22222222222222222222222222222222222222222222222222222222222:########=         ",
"        222222222222222222222222222222222222222222222222222222222222:########         ",
"       222222222222222222222222222222222222222222222222222222222222221#######&        ",
"       222222222222222222222222222222222222222222222222222222222222222:######=        ",
"       2222222222222222222222222222222222222222222222222222222222222222=######        ",
"       22222222222222222222222222222222222222222222222222222222222222221######        ",
"       22222222222222222222222222222222222222222222222222222222222222222=#####        ",
"       22222222222222222222222222222222222222222222222222222222222222222:#####        ",
"       222222222222222222222222222222222222222222222222222222222222222221#####        ",
"       222222222222222222222222222222222222222222222222222222222222222222#####        ",
"       222222222222222222222222222222222222222222222222222222222222222222#####        ",
"       222222222222222222222222222222222222222222222222222222222222222222=####        ",
"       222222222222222222222222222222222222222222222222222222222222222222:=###        ",
"                                                                                      ",
"                                                                                      ",
"                                                                                      ",
"                                                                                      "
};
