/* XPM */
static const xpm_row_t white_king_xpm[] = {
/* columns rows colors chars-per-pixel */
"86 86 20 1 ",
"  c #00B140",
". c #777777",
"X c #868686",
"o c #8C8C8C",
"O c #969696",
"+ c #9D9D9D",
"@ c #A4A4A4",
"# c #A8A8A8",
"$ c #ACACAC",
"% c #B1B1B1",
"& c #B3B3B3",
"* c #B6B6B6",
"= c #B9B9B9",
"- c #BBBBBB",
"; c #C3C3C3",
": c #CCCCCC",
"> c #D0D0D0",
", c #D8D8D8",
"< c #DFDFDF",
"1 c #FFFFFF",
/* pixels */
"                                                                                      ",
"                                      1111111111                                      ",
"                                     11111111111                                      ",
"                                      1111111111                                      ",
"                                      111111111                                       ",
"                                      111111111                                       ",
"                                      111111111                                       ",
"                                      111111111  111111                               ",
"                               111111111111111111111111                               ",
"                               111111111111111111111111                               ",
"                               111111111111111111111111                               ",
"                               111111111111111111111111                               ",
"                               111111111111111111111111                               ",
"                               111111111111111111111111                               ",
"                               111111111111111111111111                               ",
"                               111111111111111111111111                               ",
"                               111111111111111111111111                               ",
"                               111    1111111111   1111                               ",
"                                      1111111111                                      ",
"                                      1111111111                                      ",
"                                     11111111111                                      ",
"                   11111111          111111111111        1111111111                   ",
"                11111111111111       111111111111     1111111111111111                ",
"             1111111111111111111    1111111111111   111111111111111111111             ",
"            1111111111111111111111  11111111111111 11111111111111111111111            ",
"           11111111111111111111111111111111111111111111111111111111111111111          ",
"          111111111111111111111111111111111111111111111111111111111111111111          ",
"         11111111111111111111111111111111111111111111111111111111111111111111         ",
"        1111111111111111111111111111111111111111111111111111111111111111111111        ",
"        11111111111111111111111111111111111111111111111111111111111111111111111       ",
"       111111111111111111111111111111111111111111111111111111111111111111111111       ",
"      1111111111111111111111111111111111111111111111111111111111111111111111111<      ",
"      11111111111111111111111111111111111111111111111111111111111111111111111111      ",
"      11111111111111111111111111111111111111111111111111111111111111111111111111O     ",
"      11111111111111111111111111111111111111111111111111111111111111111111111111&     ",
"     1111111111111111          1111111111111111111111111        1111111111111111O     ",
"     111111111111111             11111111111111111111            11111111111111<O     ",
"     111111111111111               1111111111111111              11111111111111>#     ",
"     111111111111111               111111111111111               11111111111111>#     ",
"     111111111111111               111111111111111               11111111111111#$     ",
"     111111111111111               111111111111111               1111111111111>#-     ",
"      11111111111111               111111111111111               1111111111111>#-     ",
"      111111111111111              111111111111111               1111111111111##      ",
"      111111111111111              111111111111111               111111111111>##      ",
"      111111111111111              111111111111111              111111111111<##-      ",
"       111111111111111             111111111111111              111111111111>##       ",
"       111111111111111             111111111111111             111111111111>##-       ",
"        111111111111111            111111111111111            1111111111111###&       ",
"        1111111111111111           111111111111111           1111111111111>##-        ",
"         11111111111111111         111111111111111          1111111111111>###         ",
"          11111111111111111        111111111111111        11111111111111>###-         ",
"          111111111111111111       111111111111111       111111111111111####          ",
"           111111111111111111      111111111111111       11111111111111;###&          ",
"            1111111111111111111111111111111111111111111111111111111111;###-           ",
"            111111111111111111111111111111111111111111111111111111111;###O            ",
"             1111111111111111111111111111111111111111111111111111111;###O             ",
"              1111111111111111111111111111111111111111111111111111<;####              ",
"               11111111111111111111111111111111111111111111111111<#####               ",
"                111111111111111111111111111111111111111111111111>#####&               ",
"                 1111111111111111111111111111111111111111111111;#####-                ",
"                  1111111111111111111111111111111111111111111<######                  ",
"                   1111111111111111111111111111111111111111<;######                   ",
"                    11111111111111111111111111111111111111>#######                    ",
"                      1111111111111111111111111111111111>########                     ",
"                       111111111111111111111111111111<;########O                      ",
"              111111111111111111111111111111111111111,&o......X$$$$$$$&-              ",
"            111111111111111111111111111111111111111111111,&@.o$$$$$$$$$$$-            ",
"          111111111111111111111111111111111111111111111111111<,:$$$$$$$$$$,           ",
"          1111111111111111111111111111111111111111111111111111111,,$$$$$$$$,          ",
"         1111111111111111111111111111111111111111111111111111111111<:$$$$$$$$         ",
"        1111111111111111111111111111111111111111111111111111111111111:$$$$$$<         ",
"        1111111111111111111111111111111111111111111111111111111111111<$$$$$$:         ",
"        11111111111111111111111111111111111111111111111111111111111111:$$$$$$$        ",
"        11111111111111111111111111111111111111111111111111111111111111<$$$$$$$        ",
"        111111111111111111111111111111111111111111111111111111111111111$$$$$$$        ",
"        111111111111111111111111111111111111111111111111111111111111111:$$$$$$        ",
"        111111111111111111111111111111111111111111111111111111111111111:$$$$$$        ",
"        111111111111111111111111111111111111111111111111111111111111111,$$$$$$        ",
"        111111111111111111111111111111111111111111111111111111111111111<$$$$$$        ",
"        111111111111111111111111111111111111111111111111111111111111111<$$$$$$        ",
"        1111111111111111111111111111111111111111111111111111111111111111$$$$$$        ",
"        1111111111111111111111111111111111111111111111111111111111111111$$$$$$        ",
"                                                                                      ",
"                                                                                      ",
"                                                                                      ",
"                                                                                      "
};
