/* XPM */
static const xpm_row_t right_pressed_button_xpm[] = {
/* columns rows colors chars-per-pixel */
"77 76 10 1 ",
"  c #000000",
". c #1C1C1C",
"X c #1D1D1D",
"o c #2C2C2C",
"O c #313131",
"+ c #3C3C3C",
"@ c #444444",
"# c #4B4B4B",
"$ c #4C4C4C",
"% c #00B140",
/* pixels */
"%%%%%%%%%%%%%%%%%$+#########################################$%%%%%%%%%%%%%%%%",
"%%%%%%%%%%%%%@+##################################################%%%%%%%%%%%%",
"%%%%%%%%%%%o#######################################################%%%%%%%%%%",
"%%%%%%%%%.###########################################################%%%%%%%%",
"%%%%%%%%o#############################################################%%%%%%%",
"%%%%%%%o###############################################################%%%%%%",
"%%%%%%o#################################################################%%%%%",
"%%%%%o###################################################################%%%%",
"%%%%o#####################################################################%%%",
"%%% #######################################################################%%",
"%%%o#######################################################################%%",
"%% #########################################################################%",
"%%o#########################################################################%",
"% ##########################################################################$",
"%.###########################################################################",
"%o###########################################################################",
"%o###########################################################################",
"%+###########################################################################",
" ##############################################O#############################",
" ##############################################XO############################",
" ##############################################XXO###########################",
" ##############################################XXXO##########################",
" ##############################################XXXXO#########################",
" ##############################################XXXXXO########################",
" ##############################################XXXXXXO#######################",
" ##############################################XXXXXXXO######################",
" ##############################################XXXXXXXXO#####################",
" ##############OOOOOOOOOOOOOOOOOOOOOOOOOOOOOOOOXXXXXXXXXO####################",
" ##############XXXXXXXXXXXXXXXXXXXXXXXXXXXXXXXXXXXXXXXXXXO###################",
" ##############XXXXXXXXXXXXXXXXXXXXXXXXXXXXXXXXXXXXXXXXXXXO##################",
" ##############XXXXXXXXXXXXXXXXXXXXXXXXXXXXXXXXXXXXXXXXXXXXO#################",
" ##############XXXXXXXXXXXXXXXXXXXXXXXXXXXXXXXXXXXXXXXXXXXXXO################",
" ##############XXXXXXXXXXXXXXXXXXXXXXXXXXXXXXXXXXXXXXXXXXXXXXO###############",
" ##############XXXXXXXXXXXXXXXXXXXXXXXXXXXXXXXXXXXXXXXXXXXXXXXO##############",
" ##############XXXXXXXXXXXXXXXXXXXXXXXXXXXXXXXXXXXXXXXXXXXXXXXXO#############",
" ##############XXXXXXXXXXXXXXXXXXXXXXXXXXXXXXXXXXXXXXXXXXXXXXXXXO############",
" ##############XXXXXXXXXXXXXXXXXXXXXXXXXXXXXXXXXXXXXXXXXXXXXXXXXXO###########",
" ##############XXXXXXXXXXXXXXXXXXXXXXXXXXXXXXXXXXXXXXXXXXXXXXXXXXO###########",
" ##############XXXXXXXXXXXXXXXXXXXXXXXXXXXXXXXXXXXXXXXXXXXXXXXXXO############",
" ##############XXXXXXXXXXXXXXXXXXXXXXXXXXXXXXXXXXXXXXXXXXXXXXXXO#############",
" ##############XXXXXXXXXXXXXXXXXXXXXXXXXXXXXXXXXXXXXXXXXXXXXXXO##############",
" ##############XXXXXXXXXXXXXXXXXXXXXXXXXXXXXXXXXXXXXXXXXXXXXXO###############",
" ##############XXXXXXXXXXXXXXXXXXXXXXXXXXXXXXXXXXXXXXXXXXXXXO################",
" ##############XXXXXXXXXXXXXXXXXXXXXXXXXXXXXXXXXXXXXXXXXXXXO#################",
" ##############XXXXXXXXXXXXXXXXXXXXXXXXXXXXXXXXXXXXXXXXXXXO##################",
" ##############XXXXXXXXXXXXXXXXXXXXXXXXXXXXXXXXXXXXXXXXXXO###################",
" ##############OOOOOOOOOOOOOOOOOOOOOOOOOOOOOOOOXXXXXXXXXO####################",
" ##############################################XXXXXXXXO#####################",
" ##############################################XXXXXXXO######################",
" ##############################################XXXXXXO#######################",
" ##############################################XXXXXO########################",
" ##############################################XXXXO#########################",
" ##############################################XXXO##########################",
" ##############################################XXO###########################",
" ##############################################XO############################",
" ##############################################O#############################",
" ############################################################################",
"%+###########################################################################",
"%+###########################################################################",
"%.###########################################################################",
"%.###########################################################################",
"%%+##########################################################################",
"%%o#########################################################################%",
"%% #########################################################################%",
"%%%o#######################################################################%%",
"%%% #######################################################################%%",
"%%%%.#####################################################################%%%",
"%%%%%o###################################################################%%%%",
"%%%%%%o#################################################################%%%%%",
"%%%%%%%o###############################################################%%%%%%",
"%%%%%%%%o#############################################################%%%%%%%",
"%%%%%%%%%o###########################################################%%%%%%%%",
"%%%%%%%%%%%o#######################################################%%%%%%%%%%",
"%%%%%%%%%%%%%o##################################################$%%%%%%%%%%%%",
"%%%%%%%%%%%%%%%%%@+#########################################$$%%%%%%%%%%%%%%%",
"%%%%%%%%%%%%%%%%%%%%@+###################################$$%%%%%%%%%%%%%%%%%%"
};
