/* XPM */
static const xpm_row_t black_bishop_xpm[] = {
/* columns rows colors chars-per-pixel */
"86 86 16 1 ",
"  c #141414",
". c #161616",
"X c #171717",
"o c #181818",
"O c #191919",
"+ c #1A1A1A",
"@ c #1B1B1B",
"# c #1C1C1C",
"$ c #1D1D1D",
"% c #1E1E1E",
"& c #202020",
"* c #222222",
"= c #232323",
"- c #252525",
"; c #262626",
": c #00B140",
/* pixels */
"::::::::::::::::::::::::::::::::::::::::::::::::::::::::::::::::::::::::::::::::::::::",
"::::::::::::::::::::::::::::::::::::::::::::::::::::::::::::::::::::::::::::::::::::::",
"::::::::::::::::::::::::::::::::::::::::::::::::::::::::::::::::::::::::::::::::::::::",
":::::::::::::::::::::::::::::::::::::::::;;;;:::::::::::::::::::::::::::::::::::::::::",
":::::::::::::::::::::::::::::::::::::::;;;;;;;;:::::::::::::::::::::::::::::::::::::::",
"::::::::::::::::::::::::::::::::::::::;;;;;;;;;;%:::::::::::::::::::::::::::::::::::::",
":::::::::::::::::::::::::::::::::::::;;;;;;;;;;;%:::::::::::::::::::::::::::::::::::::",
":::::::::::::::::::::::::::::::::::::;;;;;;;;;;&+%::::::::::::::::::::::::::::::::::::",
":::::::::::::::::::::::::::::::::::::;;;;;;;;;;& :::::::::::::::::::::::::::::::::::::",
"::::::::::::::::::::::::::::::::::::;;;;;;;;;;;+%:::::::::::::::::::::::::::::::::::::",
"::::::::::::::::::::::::::::::::::::;;;;;;;;;;&+::::::::::::::::::::::::::::::::::::::",
":::::::::::::::::::::::::::::::::::::;;;;;;;;;++::::::::::::::::::::::::::::::::::::::",
":::::::::::::::::::::::::::::::::::::;;;;;;;;%+:::::::::::::::::::::::::::::::::::::::",
"::::::::::::::::::::::::::::::::::::::;;;;;;;+%:::::::::::::::::::::::::::::::::::::::",
":::::::::::::::::::::::::::::::::::::::;;;;;&+::::::::::::::::::::::::::::::::::::::::",
"::::::::::::::::::::::::::::::::::::::::;;;;+%::::::::::::::::::::::::::::::::::::::::",
":::::::::::::::::::::::::::::::::::::;;;;;;&+:::::::::::::::::::::::::::::::::::::::::",
":::::::::::::::::::::::::::::::::::;;;;;;;;+%:::::::::::::::::::::::::::::::::::::::::",
":::::::::::::::::::::::::::::::::;;;;;;;;;&++:::::::::::::::::::::::::::::::::::::::::",
"::::::::::::::::::::::::::::::::;;;;;;;;;;++::::::::::;:::::::::::::::::::::::::::::::",
":::::::::::::::::::::::::::::::;;;;;;;;;;&+%::::::::::;;;:::::::::::::::::::::::::::::",
"::::::::::::::::::::::::::::::;;;;;;;;;;;++::::::::::;;;;;::::::::::::::::::::::::::::",
":::::::::::::::::::::::::::::;;;;;;;;;;;%++::::::::::;;;;;;:::::::::::::::::::::::::::",
"::::::::::::::::::::::::::::;;;;;;;;;;;;&+%::::::::::;;;;;;;::::::::::::::::::::::::::",
":::::::::::::::::::::::::::;;;;;;;;;;;;;++::::::::::;;;;;;;;;:::::::::::::::::::::::::",
":::::::::::::::::::::::::::;;;;;;;;;;;;%++::::::::::;;;;;;;;;:::::::::::::::::::::::::",
"::::::::::::::::::::::::::;;;;;;;;;;;;;+++::::::::::;;;;;;;;;;::::::::::::::::::::::::",
":::::::::::::::::::::::::;;;;;;;;;;;;;&++%:::::::::;;;;;;;;;;;;:::::::::::::::::::::::",
":::::::::::::::::::::::::;;;;;;;;;;;;;&++::::::::::;;;;;;;;;;;;:::::::::::::::::::::::",
"::::::::::::::::::::::::;;;;;;;;;;;;;;%+%::::::::::;;;;;;;;;;;;;::::::::::::::::::::::",
"::::::::::::::::::::::::;;;;;;;;;;;;;;%++:::::::::;;;;;;;;;;;;;;::::::::::::::::::::::",
":::::::::::::::::::::::;;;;;;;;;;;;;;;%+%:::::::::;;;;;;;;;;;;;;;:::::::::::::::::::::",
":::::::::::::::::::::::;;;;;;;;;;;;;;;%+::::::::::;;;;;;;;;;;;;;;:::::::::::::::::::::",
":::::::::::::::::::::::;;;;;;;;;;;;;;;++::::::::::;;;;;;;;;;;;;;;:::::::::::::::::::::",
"::::::::::::::::::::::;;;;;;;;;;;;;;;;++:::::::::;;;;;;;;;;;;;;;;;::::::::::::::::::::",
"::::::::::::::::::::::;;;;;;;;;;;;;;;;+%:::::::::;;;;;;;;;;;;;;;;;::::::::::::::::::::",
"::::::::::::::::::::::;;;;;;;;;;;;;;;;++:::::::::;;;;;;;;;;;;;;;;;::::::::::::::::::::",
"::::::::::::::::::::::;;;;;;;;;;;;;;;;+%:::::::::;;;;;;;;;;;;;;;;;::::::::::::::::::::",
":::::::::::::::::::::;;;;;;;;;;;;;;;;;+&:::::::::;;;;;;;;;;;;;;;;;::::::::::::::::::::",
":::::::::::::::::::::;;;;;;;;;;;;;;;;;+::::::::::;;;;;;;;;;;;;;;;;;:::::::::::::::::::",
":::::::::::::::::::::;;;;;;;;;;;;;;;;;+:::::::::;;;;;;;;;;;;;;;;;;;:::::::::::::::::::",
":::::::::::::::::::::;;;;;;;;;;;;;;;;;%:::::::::;;;;;;;;;;;;;;;;;;;:::::::::::::::::::",
":::::::::::::::::::::;;;;;;;;;;;;;;;;;%:::::::::;;;;;;;;;;;;;;;;;;;:::::::::::::::::::",
":::::::::::::::::::::;;;;;;;;;;;;;;;;;&:::::::::;;;;;;;;;;;;;;;;;;;:::::::::::::::::::",
":::::::::::::::::::::;;;;;;;;;;;;;;;;;;:::::::::;;;;;;;;;;;;;;;;;;;:::::::::::::::::::",
":::::::::::::::::::::;;;;;;;;;;;;;;;;;;::;;;;;;;;;;;;;;;;;;;;;;;;;&:::::::::::::::::::",
":::::::::::::::::::::;;;;;;;;;;;;;;;;;;;;;;;;;;;;;;;;;;;;;;;;;;;;;%:::::::::::::::::::",
":::::::::::::::::::::;;;;;;;;;;;;;;;;;;;;;;;;;;;;;;;;;;;;;;;;;;;;;%:::::::::::::::::::",
":::::::::::::::::::::;;;;;;;;;;;;;;;;;;;;;;;;;;;;;;;;;;;;;;;;;;;;&+:::::::::::::::::::",
":::::::::::::::::::::;;;;;;;;;;;;;;;;;;;;;;;;;;;;;;;;;;;;;;;;;;;;%+:::::::::::::::::::",
"::::::::::::::::::::::;;;;;;;;;;;;;;;;;;;;;;;;;;;;;;;;;;;;;;;;;;&%::::::::::::::::::::",
"::::::::::::::::::::::;;;;;;;;;;;;;;;;;;;;;;;;;;;;;;;;;;;;;;;;;;&+::::::::::::::::::::",
"::::::::::::::::::::::;;;;;;;;;;;;;;;;;;;;;;;;;;;;;;;;;;;;;;;;;%++::::::::::::::::::::",
"::::::::::::::::::::::;;;;;;;;;;;;;;;;;;;;;;;;;;;;;;;;;;;;;;;;;++ ::::::::::::::::::::",
":::::::::::::::::::::::;;;;;;;;;;;;;;;;;;;;;;;;;;;;;;;;;;;;;;;+++%::::::::::::::::::::",
":::::::::::::::::::::::;;;;;;;;;;;;;;;;;;;;;;;;;;;;;;;;;;;;;;%+++:::::::::::::::::::::",
":::::::::::::::::::::::;;;;;;;;;;;;;;;;;;;;;;;;;;;;;;;;;;;;;%++++:::::::::::::::::::::",
"::::::::::::::::::::::::;;;;;;;;;;;;;;;;;;;;;;;;;;;;;;;;;;&+++++::::::::::::::::::::::",
"::::::::::::::::::::::::;;;;;;;;;;;;;;;;;;;;;;;;;;;;;;;;;&+++++ ::::::::::::::::::::::",
":::::::::::::::::::::::::;;;;;;;;;;;;;;;;;;;;;;;;;;;;;;;+++++++:::::::::::::::::::::::",
":::::::::::::::::::::::::;;;;;;;;;;;;;;;;;;;;;;;;;;;;;&+++++++ :::::::::::::::::::::::",
"::::::::::::::::::::::::::;;;;;;;;;;;;;;;;;;;;;;;;;;;%++++++++::::::::::::::::::::::::",
":::::::::::::::::::::::::::;;;;;;;;;;;;;;;;;;;;;;;;&+++++++++%::::::::::::::::::::::::",
":::::::::::::::::::::::::::;;;;;;;;;;;;;;;;;;;;;;&%+++++++++ :::::::::::::::::::::::::",
"::::::::::::::::::::::::::::;;;;;;;;;;;;;;;;;;;;&%++++++++++::::::::::::::::::::::::::",
":::::::::::::;;;;;;;;;;;;;;;;;;;;;;;;;;;;;;;;;;;;&&%%++++  %%%%%%%+%%%&&::::::::::::::",
"::::::::::::;;;;;;;;;;;;;;;;;;;;;;;;;;;;;;;;;;;;;;;;;;;&&&&&++++++++++++++::::::::::::",
":::::::::::;;;;;;;;;;;;;;;;;;;;;;;;;;;;;;;;;;;;;;;;;;;;;;;;;;;%&++++++++++++::::::::::",
"::::::::::;;;;;;;;;;;;;;;;;;;;;;;;;;;;;;;;;;;;;;;;;;;;;;;;;;;;;;;&&++++++++++:::::::::",
":::::::::;;;;;;;;;;;;;;;;;;;;;;;;;;;;;;;;;;;;;;;;;;;;;;;;;;;;;;;;;;%+++++++++:::::::::",
":::::::::;;;;;;;;;;;;;;;;;;;;;;;;;;;;;;;;;;;;;;;;;;;;;;;;;;;;;;;;;;;;%+++++++:::::::::",
"::::::::;;;;;;;;;;;;;;;;;;;;;;;;;;;;;;;;;;;;;;;;;;;;;;;;;;;;;;;;;;;;;;%+++++++::::::::",
"::::::::;;;;;;;;;;;;;;;;;;;;;;;;;;;;;;;;;;;;;;;;;;;;;;;;;;;;;;;;;;;;;;;+++++++::::::::",
"::::::::;;;;;;;;;;;;;;;;;;;;;;;;;;;;;;;;;;;;;;;;;;;;;;;;;;;;;;;;;;;;;;;%++++++::::::::",
"::::::::;;;;;;;;;;;;;;;;;;;;;;;;;;;;;;;;;;;;;;;;;;;;;;;;;;;;;;;;;;;;;;;;++++++::::::::",
"::::::::;;;;;;;;;;;;;;;;;;;;;;;;;;;;;;;;;;;;;;;;;;;;;;;;;;;;;;;;;;;;;;;;%+++++::::::::",
"::::::::;;;;;;;;;;;;;;;;;;;;;;;;;;;;;;;;;;;;;;;;;;;;;;;;;;;;;;;;;;;;;;;;&+++++::::::::",
"::::::::;;;;;;;;;;;;;;;;;;;;;;;;;;;;;;;;;;;;;;;;;;;;;;;;;;;;;;;;;;;;;;;;;+++++::::::::",
"::::::::;;;;;;;;;;;;;;;;;;;;;;;;;;;;;;;;;;;;;;;;;;;;;;;;;;;;;;;;;;;;;;;;;%++++::::::::",
"::::::::;;;;;;;;;;;;;;;;;;;;;;;;;;;;;;;;;;;;;;;;;;;;;;;;;;;;;;;;;;;;;;;;;%++++::::::::",
"::::::::;;;;;;;;;;;;;;;;;;;;;;;;;;;;;;;;;;;;;;;;;;;;;;;;;;;;;;;;;;;;;;;;;%++++::::::::",
"::::::::;;;;;;;;;;;;;;;;;;;;;;;;;;;;;;;;;;;;;;;;;;;;;;;;;;;;;;;;;;;;;;;;;&%+++::::::::",
"::::::::::::::::::::::::::::::::::::::::::::::::::::::::::::::::::::::::::::::::::::::",
"::::::::::::::::::::::::::::::::::::::::::::::::::::::::::::::::::::::::::::::::::::::",
"::::::::::::::::::::::::::::::::::::::::::::::::::::::::::::::::::::::::::::::::::::::",
"::::::::::::::::::::::::::::::::::::::::::::::::::::::::::::::::::::::::::::::::::::::"
};
