/* XPM */
static const xpm_row_t black_knight_xpm[] = {
/* columns rows colors chars-per-pixel */
"86 86 21 1 ",
"  c #141414",
". c #151515",
"X c #161616",
"o c #171717",
"O c #181818",
"+ c #191919",
"@ c #1A1A1A",
"# c #1B1B1B",
"$ c #1C1C1C",
"% c #1D1D1D",
"& c #1E1E1E",
"* c #202020",
"= c #222222",
"- c #232323",
"; c #252525",
": c #272727",
"> c #292929",
", c #929292",
"< c #949494",
"1 c #FFFFFF",
"2 c #00B140",
/* pixels */
"22222222222222222222222222222222222222222222222222222222222222222222222222222222222222",
"22222222222222222222222222222222222222222222222222222222222222222222222222222222222222",
"22222222222222222222222222222222:22222222222222222222222222222222222222222222222222222",
"222222222222222222222222222222::::2222222222222222222222222222222222222222222222222222",
"222222222222222222222222222222:::::222222222222222222222222222222222222222222222222222",
"22222222222222222222222222222:::::::22222222222222222222222222222222222222222222222222",
"22222222222222222222222222222::::::::2222222222222222222222222222222222222222222222222",
"22222222222222222222222222222:::::::::222222222222222222222222222222222222222222222222",
"22222222222222222222222222222::::::::::22222222222222222222222222222222222222222222222",
"22222222222222222222222222222:::::::::::2222222222222222222222222222222222222222222222",
"22222222222222222222222222222::::::::::::222222222222222222222222222222222222222222222",
"2222222222222222222222222222:::::::::::::::::22222222222222222222222222222222222222222",
"222222222222222222222222222::::::::::::::::::::::2222222222222222222222222222222222222",
"22222222222222222222222222::::::::::::::::::::::::::2222222222222222222222222222222222",
"2222222222222222222222222:::::::::::::::::::::::::::::22222222222222222222222222222222",
"222222222222222222222222::::::::::::::::::::::::::::::::222222222222222222222222222222",
"22222222222222222222222:::::::::::::::::::::::::::::::::::2222222222222222222222222222",
"2222222222222222222222:::::::::::::::::::::::::::::::::::::222222222222222222222222222",
"2222222222222222222222::::::::::::::::::::::::::::::::::::::22222222222222222222222222",
"222222222222222222222::::::::::::>::::::::::::::::::::::::::::222222222222222222222222",
"222222222222222222222:::::::::::,1<>:::::::::::::::::::::::::::22222222222222222222222",
"22222222222222222222:::::::::::,1111::::::::::::::::::::::::::::2222222222222222222222",
"22222222222222222222::::::::::>11111,:::::::::::::::::::::::::::@222222222222222222222",
"22222222222222222222::::::::::,1111<>::::::::::::::::::::::::::::@22222222222222222222",
"22222222222222222222:::::::::,1<,,>::::::::::::::::::::::::::::::&@2222222222222222222",
"22222222222222222222:::::::::<>::::::::::::::::::::::::::::::::::*@2222222222222222222",
"2222222222222222222:::::::::::::::::::::::::::::::::::::::::::::::&.222222222222222222",
"2222222222222222222::::::::::::::::::::::::::::::::::::::::::::::::@222222222222222222",
"222222222222222222:::::::::::::::::::::::::::::::::::::::::::::::::&.22222222222222222",
"222222222222222222:::::::::::::::::::::::::::::::::::::::::::::::::&&22222222222222222",
"22222222222222222::::::::::::::::::::::::::::::::::::::::::::::::::*@.2222222222222222",
"2222222222222222::::::::::::::::::::::::::::::::::::::::::::::::::::@&2222222222222222",
"222222222222222:::::::::::::::::::::::::::::::::::::::::::::::::::::&@@222222222222222",
"222222222222222:::::::::::::::::::::::::::::::*@::::::::::::::::::::&@@222222222222222",
"22222222222222:::::::::::::::::::::::::::::::*@&::::::::::::::::::::&@@222222222222222",
"2222222222222::::::::::::::::::::::::::::::*&@@*::::::::::::::::::::*@@@22222222222222",
"222222222222::::::::::::::::::::::::::::::2@@@&:::::::::::::::::::::*@@@22222222222222",
"22222222222:::::::::::::::::::::::::::::::22@&:::::::::::::::::::::::@@@22222222222222",
"22222222222::::::::::::::::::::::::::::::222*:::::::::::::::::::::::*@@@22222222222222",
"2222222222::::::::::::::::::::::::::::::2222:::::::::::::::::::::::::@@@22222222222222",
"2222222222:::::::::::::::::::::::::::::22222::::::::::::::::::::::::*@@@@2222222222222",
"222222222:::::::::::::::::::::::::::::2222222:::::::::::::::::::::::*@@@.2222222222222",
"222222222:::::::::::::::::::::::::::22222222::::::::::::::::::::::::*@@@&2222222222222",
"222222222:::::::::::::::::*@*::::::222222222::::::::::::::::::::::::&@@@.2222222222222",
"22222222::::::::::::::::::*@&:::222222222222::::::::::::::::::::::::@@@@@2222222222222",
"22222222::::::::::::::::::@&*22222222222222:::::::::::::::::::::::::@@@@.2222222222222",
"22222222::::::::::::::::::2222222222222222:::::::::::::::::::::::::*@@@@@2222222222222",
"2222222222:::::::::::::::2222222222222222::::::::::::::::::::::::::@@@@@.2222222222222",
"22222222222:::::::::::::2222222222222222::::::::::::::::::::::::::*@@@@@.2222222222222",
"222222222222::::::::::::222222222222222:::::::::::::::::::::::::::*&@@@@@2222222222222",
"22222222222222:::::::::222222222222222::::::::::::::::::::::::::::@@@@@@@2222222222222",
"2222222222222222::::::222222222222222::::::::::::::::::::::::::::*@@@@@@&2222222222222",
"222222222222222222222222222222222222:::::::::::::::::::::::::::::@@@@@@@22222222222222",
"2222222222222222222222222222222222::::::::::::::::::::::::::::::&@@@@@@@22222222222222",
"222222222222222222222222222222222::::::::::::::::::::::::::::::&@@@@@@@@22222222222222",
"22222222222222222222222222222222:::::::::::::::::::::::::::::::@@@@@@@@&22222222222222",
"2222222222222222222222222222222:::::::::::::::::::::::::::::::*@@@@@@@@222222222222222",
"2222222222222222222222222222222::::::::::::::::::::::::::::::*@@@@@@@@@222222222222222",
"222222222222222222222222222222:::::::::::::::::::::::::::::::@@@@@@@@@@222222222222222",
"22222222222222222222222222222:::::::::::::::::::::::::::::::&@@@@@@@@@&222222222222222",
"2222222222222222222222222222:::::::::::::::::::::::::::::::&@@@@@@@@@@2222222222222222",
"2222222222222222222222222222::::::::::::::::::::::::::::::*@@@@@@@@@@@2222222222222222",
"2222222222222222222222222222:::::::::::::::::::::::::::::*@@@@@@@@@@@&2222222222222222",
"222222222222222222222222222:::::::::::::::::::::::::::::*@@@@@@@@@@@@&2222222222222222",
"222222222222222222222222222::::::::::::::::::::::::::::*@@@@@@@@@@@@@22222222222222222",
"22222222222222222222222222:::::::::::::::::::::::::::::**&@@         ..222222222222222",
"2222222222222222:::::::::::::::::::::::::::::::::::::::::::::*&@    .@@@@ 222222222222",
"22222222222222::::::::::::::::::::::::::::::::::::::::::::::::::::@ @@@@@&.22222222222",
"2222222222222:::::::::::::::::::::::::::::::::::::::::::::::::::::::&&@@@@@@2222222222",
"222222222222::::::::::::::::::::::::::::::::::::::::::::::::::::::::::*@@@@@@222222222",
"222222222222:::::::::::::::::::::::::::::::::::::::::::::::::::::::::::*@@@@@222222222",
"22222222222:::::::::::::::::::::::::::::::::::::::::::::::::::::::::::::&@@@@@22222222",
"22222222222:::::::::::::::::::::::::::::::::::::::::::::::::::::::::::::*@@@@.22222222",
"22222222222::::::::::::::::::::::::::::::::::::::::::::::::::::::::::::::&@@@@22222222",
"22222222222::::::::::::::::::::::::::::::::::::::::::::::::::::::::::::::&@@@@22222222",
"22222222222::::::::::::::::::::::::::::::::::::::::::::::::::::::::::::::&@@@@22222222",
"22222222222::::::::::::::::::::::::::::::::::::::::::::::::::::::::::::::@@@@@22222222",
"22222222222::::::::::::::::::::::::::::::::::::::::::::::::::::::::::::::*@@@@22222222",
"22222222222::::::::::::::::::::::::::::::::::::::::::::::::::::::::::::::*@@@@22222222",
"22222222222::::::::::::::::::::::::::::::::::::::::::::::::::::::::::::::*@@@@22222222",
"22222222222::::::::::::::::::::::::::::::::::::::::::::::::::::::::::::::*@@@@22222222",
"22222222222::::::::::::::::::::::::::::::::::::::::::::::::::::::::::::::*@@@@22222222",
"22222222222222222222222222222222222222222222222222222222222222222222222222222222222222",
"22222222222222222222222222222222222222222222222222222222222222222222222222222222222222",
"22222222222222222222222222222222222222222222222222222222222222222222222222222222222222",
"22222222222222222222222222222222222222222222222222222222222222222222222222222222222222"
};
