/* XPM */
static const xpm_row_t black_queen_xpm[] = {
/* columns rows colors chars-per-pixel */
"86 86 16 1 ",
"  c #141414",
". c #151515",
"X c #161616",
"o c #171717",
"O c #181818",
"+ c #191919",
"@ c #1B1B1B",
"# c #1C1C1C",
"$ c #1D1D1D",
"% c #1E1E1E",
"& c #202020",
"* c #222222",
"= c #232323",
"- c #252525",
"; c #272727",
": c #00B140",
/* pixels */
"::::::::::::::::::::::::::::::::::::::::::::::::::::::::::::::::::::::::::::::::::::::",
"::::::::::::::::::::::::::::::::::::::::::::::::::::::::::::::::::::::::::::::::::::::",
"::::::::::::::::::::::::::::::::::::::::::::::::::::::::::::::::::::::::::::::::::::::",
"::::::::::::::::::::::::::::::::::::::::::::::::::::::::::::::::::::::::::::::::::::::",
"::::::::::::::::::::::::::::::::::::::::::::::::::::::::::::::::::::::::::::::::::::::",
"::::::::::::::::::::::::::::::::::::::::::::::::::::::::::::::::::::::::::::::::::::::",
":::::::::::::::::::::::::::::-;;;::::::::::::::::::::-;;;:::::::::::::::::::::::::::::",
":::::::::::::::::::::::::::-;;;;;;;;:::::::::::::::;;;;;;;;:::::::::::::::::::::::::::",
"::::::::::::::::::::::::::;;;;;;;;;;;:::::::::::::;;;;;;;;;;-:::::::::::::::::::::::::",
"::::::::::::::::::::::::::;;;;;;;;;;;;:::::::::::;;;;;;;;;;;;-::::::::::::::::::::::::",
":::::::::::::::::::::::::;;;;;;;;;;;-;:::::::::::;;;;;;;;;;;;-::::::::::::::::::::::::",
":::::::::::::::::::::::::;;;;;;;;;;;---:::::::::;;;;;;;;;;;;;-&:::::::::::::::::::::::",
"::::::::::::::::::::::::;;;;;;;;;;;;;;-:::::::::;;;;;;;;;;;;;-#:::::::::::::::::::::::",
"::::::::::::::::::::::::;;;;;;;;;;;;;;-:::::::::;;;;;;;;;;;;;-@:::::::::::::::::::::::",
"::::::::::::::::::::::::;;;;;;;;;;;;;;&:::::::::;;;;;;;;;;;;;#.:::::::::::::::::::::::",
"::::::::::::::::::::::::-;;;;;;;;;;;;&#:::::::::;;;;;;;;;;;;;@.:::::::::::::::::::::::",
":::::::::::::::::::::::::;;;;;;;;;;;&@.:::::::::-;;;;;;;;;-;&@#:::::::::::::::::::::::",
":::::::::::::::::::::::::-;;;;;;;;;##@:::::::::::;;;;;;;;;-&#.::::::::::::::::::::::::",
"::::::::::::::::::::::::::;;;;;;;;;#@.::::::::::::;;;;;;;-#@@:::::::::::::::::::::::::",
":::::::::::::::::::::::::::;;;;;;;-&@:::::::::::::;;;;;###@.::::::::::::::::::::::::::",
":::::::::::::::::::::::::::::;;;;;;;#:::::::::::::;;;;;#@.::::::::::::::::::::::::::::",
":::::::::::--::::::::::::::::;;;;;;;&@:::::::::::;;;;;-#@@::::::::::::::----::::::::::",
":::::::::;;;;;;;:::::::::::::;;;;;;;-#:::::::::::;;;;;;&@.::::::::::::-;;;;;;;::::::::",
":::::::-;;;;;;;;;-:::::::::::;;;;;;;--:::::::::::;;;;;;-@@:::::::::::;;;;;;;;;;-::::::",
":::::::;;;;;;;;;;;-::::::::::;;;;;;;;;@:::::::::;;;;;;--@@::::::::::-;;;;;;;;;;;-:::::",
"::::::;;;;;;;;;;;;;::::::::::;;;;;;;;;&:::::::::;;;;;;-;@.::::::::::;;;;;;;;;;;;-:::::",
"::::::;;;;;;;;;;;;;&:::::::::;;;;;;;;;-:::::::::;;;;;;;;#@:::::::::-;;;;;;;;;;;;--::::",
":::::;;;;;;;;;;;;--&:::::::::;;;;;;;;--@:::::::-;;;;;;;;#.:::::::::;;;;;;;;;;;;;--::::",
":::::-;;;;;;;;;;;;-#:::::::::-;;;;;;;;;-:::::::;;;;;;;;;&.:::::::::;;;;;;;;;;;;;;;::::",
":::::-;;;;;;;;;;;;-@:::::::::;;;;;;;;;--@::::::;;;;;;;;;-@:::::::::;;;;;;;;;;;;;;&::::",
":::::--;;;;;;;;;;;&@:::::::::;;;;;;;;;;;-:::::;;;;;;;;;-&#:::::::::;;;;;;;;;;;--;-::::",
"::::::;;;;;;;;;;;;#.:::::::::;;;;;;;;;;;;:::::;;;;;;;;;--@:::::::::-;;;;;;;;;;;-&#::::",
"::::::;;;;;;;;;;;##::::::::::;;;;;;;;;;;;-::::;;;;;;;;;;;#::::::::::;;;;;;;;---&@:::::",
":::::::;;;;;;;;;;-#.::::::::-;;;;;;;;;;;;;:::-;;;;;;;;;;;#:::::::::;;;;;;;;;--&##:::::",
"::::::::;;;;;;;;;;-&.:::::::-;;;;;;;;;;;-;&::-;;;;;;;;;;;-::::::::;;;;;;;&&&#@@#::::::",
"::::::::::;;;;;;;;--&.::::::-;;;;;;;;;;;---::-;;;;;;;;;;;-:::::::;;;;;;;;&@#@.::::::::",
"::::::::::::;;;;;;;;;&@:::::-;;;;;;;;;;;;;;:;;;;;;;;;;;;;;::::::-;;;;;;;;#@@::::::::::",
"::::::::::::-;;;;;;;;;&@::::;;;;;;;;;;;;;;;-;;;;;;;;;;;;;;:::::-;;;;;;;;&@@:::::::::::",
":::::::::::::;;;;;;;;;--@:::;;;;;;;;;;;;;;;;;;;;;;;;;;;;;;#::::-;;;;;;;;&@@:::::::::::",
":::::::::::::-;;;;;;;----:::;;;;;;;;;;;;;;;;;;;;;;;;;;;;;;#:::;-;;;;;;;-@@::::::::::::",
"::::::::::::::;;;;;;;;;;;;::;;;;;;;;;;;;;;;;;;;;;;;;;;;;;;:::;;;;;;;;;-&@.::::::::::::",
"::::::::::::::;;;;;;;;;;;;;:;;;;;;;;;;;;;;;;;;;;;;;;;;;;;;-:;;;;;;;;;;-&@:::::::::::::",
"::::::::::::::-;;;;;;;;;;;;-;;;;;;;;;;;;;;;;;;;;;;;;;;;;;;-;;;;;;;;;;;;@.:::::::::::::",
":::::::::::::::;;;;;;;;;;;;;;;;;;;;;;;;;;;;;;;;;;;;;;;;;;;;;;;;;;;;;;;&##:::::::::::::",
":::::::::::::::-;;;;;;;;;;;;;;;;;;;;;;;;;;;;;;;;;;;;;;;;;;;;;;;;;;;;--#@::::::::::::::",
"::::::::::::::::;;;;;;;;;;;;;;;;;;;;;;;;;;;;;;;;;;;;;;;;;;;;;;;;;;;;--@ ::::::::::::::",
"::::::::::::::::;;;;;;;;;;;;;;;;;;;;;;;;;;;;;;;;;;;;;;;;;;;;;;;;;;;;;&@:::::::::::::::",
"::::::::::::::::-;;;;;;;;;;;;;;;;;;;;;;;;;;;;;;;;;;;;;;;;;;;;;;;;;;--#@:::::::::::::::",
":::::::::::::::::;;;;;;;;;;;;;;;;;;;;;;;;;;;;;;;;;;;;;;;;;;;;;;;;;;;-@#:::::::::::::::",
":::::::::::::::::-;;;;;;;;;;;;;;;;;;;;;;;;;;;;;;;;;;;;;;;;;;;;;;;;;;#@::::::::::::::::",
"::::::::::::::::::;;;;;;;;;;;;;;;;;;;;;;;;;;;;;;;;;;;;;;;;;;;;;;;;--#.::::::::::::::::",
"::::::::::::::::::;;;;;;;;;;;;;;;;;;;;;;;;;;;;;;;;;;;;;;;;;;;;;;;;;&@:::::::::::::::::",
"::::::::::::::::::-;;;;;;;;;;;;;;;;;;;;;;;;;;;;;;;;;;;;;;;;;;;;;;;;&@:::::::::::::::::",
":::::::::::::::::::;;;;;;;;;;;;;;;;;;;;;;;;;;;;;;;;;;;;;;;;;;;;;;;;#.:::::::::::::::::",
":::::::::::::::::::-;;;;;;;;;;;;;;;;;;;;;;;;;;;;;;;;;;;;;;;;;;;;;;#@::::::::::::::::::",
"::::::::::::::::::::;;;;;;;;;;;;;;;;;;;;;;;;;;;;;;;;;;;;;;;;;;;;--#.::::::::::::::::::",
"::::::::::::::::::::;;;;;;;;;;;;;;;;;;;;;;;;;;;;;;;;;;;;;;;;;;;;-&@:::::::::::::::::::",
"::::::::::::::::::::-;;;;;;;;;;;;;;;;;;;;;;;;;;;;;;;;;;;;;;;;;;;-@ :::::::::::::::::::",
":::::::::::::::::::::;;;;;;;;;;;;;;;;;;;;;;;;;;;;;;;;;;;;;;;;;;;&@.:::::::::::::::::::",
":::::::::::::::::::::-;;;;;;;;;;;;;;;;;;;;;;;;;;;;;;;;;;;;;;;;;&@#::::::::::::::::::::",
"::::::::::::::::::::::;;;;;;;;;;;;;;;;;;;;;;;;;;;;;;;;;;;;;-;--@@.::::::::::::::::::::",
"::::::::::::::::::::::;;;;;;;;;;;;;;;;;;;;;;;;;;;;;;;;;;;;;-;-@@@:::::::::::::::::::::",
"::::::::::::::::::::::-;;;;;;;;;;;;;;;;;;;;;;;;;;;;;;;;-;;--#.@@.:::::::::::::::::::::",
":::::::::::::::--------;;;;;;;;;;;;;;;;;;;;;;;;;;;;;;;;#@@       .@..@#:::::::::::::::",
"::::::::::::-;;;;;;;;;;;;;;;;;;;;;;;;;;;;;;;;;;;;;;;;;;;;;&#@   .@@@.@@@.:::::::::::::",
":::::::::::-;;;;;;;;;;;;;;;;;;;;;;;;;;;;;;;;;;;;;;;;;;;;;;;;-#@@@@@@@@.@.@#:::::::::::",
"::::::::::-;;;;;;;;;;;;;;;;;;;;;;;;;;;;;;;;;;;;;;;;;;;;;;;;;;;;;-&@@.@@@@@@:::::::::::",
"::::::::::;;;;;;;;;;;;;;;;;;;;;;;;;;;;;;;;;;;;;;;;;;;;;;;;;;;;;;---&@@@@@@@.::::::::::",
":::::::::;;;;;;;;;;;;;;;;;;;;;;;;;;;;;;;;;;;;;;;;;;;;;;;;;;;;;;;;;;;&@@@@@@@::::::::::",
":::::::::;;;;;;;;;;;;;;;;;;;;;;;;;;;;;;;;;;;;;;;;;;;;;;;;;;;;;;;;;;;--.@@@.@@:::::::::",
":::::::::;;;;;;;;;;;;;;;;;;;;;;;;;;;;;;;;;;;;;;;;;;;;;;;;;;;;;;;;;;;;;-@.@@@.:::::::::",
"::::::::-;;;;;;;;;;;;;;;;;;;;;;;;;;;;;;;;;;;;;;;;;;;;;;;;;;;;;;;;;;;;;-#@@@@@:::::::::",
"::::::::-;;;;;;;;;;;;;;;;;;;;;;;;;;;;;;;;;;;;;;;;;;;;;;;;;;;;;;;;;;;;;;;#@@@@:::::::::",
"::::::::-;;;;;;;;;;;;;;;;;;;;;;;;;;;;;;;;;;;;;;;;;;;;;;;;;;;;;;;;;;;;;;;&#@@@:::::::::",
"::::::::-;;;;;;;;;;;;;;;;;;;;;;;;;;;;;;;;;;;;;;;;;;;;;;;;;;;;;;;;;;;;;;;&@@@@:::::::::",
"::::::::-;;;;;;;;;;;;;;;;;;;;;;;;;;;;;;;;;;;;;;;;;;;;;;;;;;;;;;;;;;;;;;;-@@.@:::::::::",
"::::::::-;;;;;;;;;;;;;;;;;;;;;;;;;;;;;;;;;;;;;;;;;;;;;;;;;;;;;;;;;;;;;;;-#@.@:::::::::",
"::::::::-;;;;;;;;;;;;;;;;;;;;;;;;;;;;;;;;;;;;;;;;;;;;;;;;;;;;;;;;;;;;;;;;#@@@:::::::::",
"::::::::-;;;;;;;;;;;;;;;;;;;;;;;;;;;;;;;;;;;;;;;;;;;;;;;;;;;;;;;;;;;;;;;;&@@@:::::::::",
"::::::::-;;;;;;;;;;;;;;;;;;;;;;;;;;;;;;;;;;;;;;;;;;;;;;;;;;;;;;;;;;;;;;;;&@@@:::::::::",
"::::::::::::::::::::::::::::::::::::::::::::::::::::::::::::::::::::::::::::::::::::::",
"::::::::::::::::::::::::::::::::::::::::::::::::::::::::::::::::::::::::::::::::::::::",
"::::::::::::::::::::::::::::::::::::::::::::::::::::::::::::::::::::::::::::::::::::::",
"::::::::::::::::::::::::::::::::::::::::::::::::::::::::::::::::::::::::::::::::::::::",
"::::::::::::::::::::::::::::::::::::::::::::::::::::::::::::::::::::::::::::::::::::::",
"::::::::::::::::::::::::::::::::::::::::::::::::::::::::::::::::::::::::::::::::::::::"
};
