/* XPM */
static const xpm_row_t black_rook_xpm[] = {
/* columns rows colors chars-per-pixel */
"86 86 19 1 ",
"  c #111111",
". c #131313",
"X c #141414",
"o c #151515",
"O c #161616",
"+ c #171717",
"@ c #181818",
"# c #191919",
"$ c #1A1A1A",
"% c #1B1B1B",
"& c #1C1C1C",
"* c #1D1D1D",
"= c #1E1E1E",
"- c #202020",
"; c #222222",
": c #232323",
"> c #252525",
", c #272727",
"< c #00B140",
/* pixels */
"<<<<<<<<<<<<<<<<<<<<<<<<<<<<<<<<<<<<<<<<<<<<<<<<<<<<<<<<<<<<<<<<<<<<<<<<<<<<<<<<<<<<<<",
"<<<<<<<<<<<<<<<<<<<<<<<<<<<<<<<<<<<<<<<<<<<<<<<<<<<<<<<<<<<<<<<<<<<<<<<<<<<<<<<<<<<<<<",
"<<<<<<<<<<<<<<<<<<<<<<<<<<<<<<<<<<<<<<<<<<<<<<<<<<<<<<<<<<<<<<<<<<<<<<<<<<<<<<<<<<<<<<",
"<<<<<<<<<<<<<<<<<<<<<<<<<<<<<<<<<<<<<<<<,,,,,,,,<<<<<<<<<<<<<<<<<<<<<<<<<<<<<<<<<<<<<<",
"<<<<<<<<<<<<<<<<<<<<<<<<<<<<<<<<<<<<<,,,,,,,,,,,,,<<<<<<<<<<<<<<<<<<<<<<<<<<<<<<<<<<<<",
"<<<<<<<<<<<<<<<<<<<<<<<,,,,,<<<<<<<<<,,,,,,,,,,,,,,<<<<<<<<<,,,,<<<<<<<<<<<<<<<<<<<<<<",
"<<<<<<<<<<<<<<<<<<<<,,,,,,,,<<<<<<<<<,,,,,,,,,,,,,,<<<<<<<<,,,,,,,<<<<<<<<<<<<<<<<<<<<",
"<<<<<<<<<<<<<<<<<<<,,,,,,,,,<<<<<<<<<,,,,,,,,,,,,,,<<<<<<<<,,,,,,,::<<<<<<<<<<<<<<<<<<",
"<<<<<<<<<<<<<<<<<<,,,,,,,,,,<<<<<<<<<,,,,,,,,,,,,,,<<<<<<<<,,,,,,,:$$$<<<<<<<<<<<<<<<<",
"<<<<<<<<<<<<<<<<<,,,,,,,,,,,<<<<<<<<<,,,,,,,,,,,,,,<<<<<<<<,,,,,,,=o$o<<<<<<<<<<<<<<<<",
"<<<<<<<<<<<<<<<<<,,,,,,,,,,,,<<<<<<<<,,,,,,,,,,,,,,<<<<<<<<,,,,,,,$$$o<<<<<<<<<<<<<<<<",
"<<<<<<<<<<<<<<<<<<,,,,,,,,,,,<<<<<<<,,,,,,,,,,,,,,,<<<<<<<<,,,,,,,o$$=<<<<<<<<<<<<<<<<",
"<<<<<<<<<<<<<<<<<<,,,,,,,,,,,<<<<<<<,,,,,,,,,,,,,,,<<<<<<<,,,,,,,:$$$$<<<<<<<<<<<<<<<<",
"<<<<<<<<<<<<<<<<<<,,,,,,,,,,,<<<<<<<,,,,,,,,,,,,,,,<<<<<<<,,,,,,,:$o$=<<<<<<<<<<<<<<<<",
"<<<<<<<<<<<<<<<<<<,,,,,,,,,,,<<<<<<<,,,,,,,,,,,,,,,<<<<<<<,,,,,,,=o$$<<<<<<<<<<<<<<<<<",
"<<<<<<<<<<<<<<<<<<,,,,,,,,,,,,<<<<<<,,,,,,,,,,,,,,,<<<<<<<,,,,,,,:$$$<<<<<<<<<<<<<<<<<",
"<<<<<<<<<<<<<<<<<<,,,,,,,,,,,,,,,,,,,,,,,,,,,,,,,,,,,,:,,:,,,,,,,:o$$<<<<<<<<<<<<<<<<<",
"<<<<<<<<<<<<<<<<<<,,,,,,,,,,,,,,,,,,,,,,,,,,,,,,,,,,,,,,,,,,,,,,,$$$$<<<<<<<<<<<<<<<<<",
"<<<<<<<<<<<<<<<<<<,,,,,,,,,,,,,,,,,,,,,,,,,,,,,,,,,,,,,,,,,,,,,,,$$o$<<<<<<<<<<<<<<<<<",
"<<<<<<<<<<<<<<<<<<,,,,,,,,,,,,,,,,,,,,,,,,,,,,,,,,,,,,,,,,,,,,,,:$$$$<<<<<<<<<<<<<<<<<",
"<<<<<<<<<<<<<<<<<<,,,,,,,,,,,,,,,,,,,,,,,,,,,,,,,,,,,,,,,,,,,,,,:$o$$<<<<<<<<<<<<<<<<<",
"<<<<<<<<<<<<<<<<<<,,,,,,,,,,,,,,,,,,,,,,,,,,,,,,,,,,,,,,,,,,,,,,=$$$$<<<<<<<<<<<<<<<<<",
"<<<<<<<<<<<<<<<<<<,,,,,,,,,,,,,,,,,,,,,,,,,,,,,,,,,,,,,,,,,,,,,,o$$oo<<<<<<<<<<<<<<<<<",
"<<<<<<<<<<<<<<<<<<,,,,,,,,,,,,,,,,,,,,,,,,,,,,,,,,,,,,,,,,,,,,,=$$$$=<<<<<<<<<<<<<<<<<",
"<<<<<<<<<<<<<<<<<<<,,,,,,,,,,,,,,,,,,,,,,,,,,,,,,,,,,,,,,,,,,,,$o$$$<<<<<<<<<<<<<<<<<<",
"<<<<<<<<<<<<<<<<<<<,,,,,,,,,,,,,,,,,,,,,,,,,,,,,,,,,,,,,,,,,,,=$$$$$<<<<<<<<<<<<<<<<<<",
"<<<<<<<<<<<<<<<<<<<<,,,,,,,,,,,,,,,,,,,,,,,,,,,,,,,,,,,,,,,,:$o$$$=<<<<<<<<<<<<<<<<<<<",
"<<<<<<<<<<<<<<<<<<<<<,,,,,,,,,,,,,,,,,,,,,,,,,,,,,,,,,,,,:$oo$$$o=<<<<<<<<<<<<<<<<<<<<",
"<<<<<<<<<<<<<<<<<<<<<<<,,,,,,,,,,,,,,,,=:=::==:===:==$$. ....ooo<<<<<<<<<<<<<<<<<<<<<<",
"<<<<<<<<<<<<<<<<<<<<<<<<<<,,,,,,,,,,,,,,,:==$$$$$$$$$$$$$$$$=<<<<<<<<<<<<<<<<<<<<<<<<<",
"<<<<<<<<<<<<<<<<<<<<<<<<<<,,,,,,,,,,,,,,,,,,,,=:=$$$$$$$$$$$$<<<<<<<<<<<<<<<<<<<<<<<<<",
"<<<<<<<<<<<<<<<<<<<<<<<<<<,,,,,,,,,,,,,,,,,,,,,,,,=$$$$$$$$$$<<<<<<<<<<<<<<<<<<<<<<<<<",
"<<<<<<<<<<<<<<<<<<<<<<<<<,,,,,,,,,,,,,,,,,,,,,,,,,,,=$$$$$$$$<<<<<<<<<<<<<<<<<<<<<<<<<",
"<<<<<<<<<<<<<<<<<<<<<<<<<,,,,,,,,,,,,,,,,,,,,,,,,,,,,,=$$$$$$=<<<<<<<<<<<<<<<<<<<<<<<<",
"<<<<<<<<<<<<<<<<<<<<<<<<<,,,,,,,,,,,,,,,,,,,,,,,,,,,,,,:$$$$$$<<<<<<<<<<<<<<<<<<<<<<<<",
"<<<<<<<<<<<<<<<<<<<<<<<<<,,,,,,,,,,,,,,,,,,,,,,,,,,,,,,,=$$$$=<<<<<<<<<<<<<<<<<<<<<<<<",
"<<<<<<<<<<<<<<<<<<<<<<<<<,,,,,,,,,,,,,,,,,,,,,,,,,,,,,,,:$$$$$<<<<<<<<<<<<<<<<<<<<<<<<",
"<<<<<<<<<<<<<<<<<<<<<<<<,,,,,,,,,,,,,,,,,,,,,,,,,,,,,,,,,=$$$$<<<<<<<<<<<<<<<<<<<<<<<<",
"<<<<<<<<<<<<<<<<<<<<<<<<,,,,,,,,,,,,,,,,,,,,,,,,,,,,,,,,,=$$$$=<<<<<<<<<<<<<<<<<<<<<<<",
"<<<<<<<<<<<<<<<<<<<<<<<<,,,,,,,,,,,,,,,,,,,,,,,,,,,,,,,,,=$$$$$<<<<<<<<<<<<<<<<<<<<<<<",
"<<<<<<<<<<<<<<<<<<<<<<<<,,,,,,,,,,,,,,,,,,,,,,,,,,,,,,,,,,$$$$$<<<<<<<<<<<<<<<<<<<<<<<",
"<<<<<<<<<<<<<<<<<<<<<<<<,,,,,,,,,,,,,,,,,,,,,,,,,,,,,,,,,:$$$$$<<<<<<<<<<<<<<<<<<<<<<<",
"<<<<<<<<<<<<<<<<<<<<<<<<,,,,,,,,,,,,,,,,,,,,,,,,,,,,,,,,,:$$$$$<<<<<<<<<<<<<<<<<<<<<<<",
"<<<<<<<<<<<<<<<<<<<<<<<,,,,,,,,,,,,,,,,,,,,,,,,,,,,,,,,,,:$$$$$=<<<<<<<<<<<<<<<<<<<<<<",
"<<<<<<<<<<<<<<<<<<<<<<<,,,,,,,,,,,,,,,,,,,,,,,,,,,,,,,,,,:$$$$$$<<<<<<<<<<<<<<<<<<<<<<",
"<<<<<<<<<<<<<<<<<<<<<<<,,,,,,,,,,,,,,,,,,,,,,,,,,,,,,,,,,:$$$$$=<<<<<<<<<<<<<<<<<<<<<<",
"<<<<<<<<<<<<<<<<<<<<<<<,,,,,,,,,,,,,,,,,,,,,,,,,,,,,,,,,,:$$$$$$<<<<<<<<<<<<<<<<<<<<<<",
"<<<<<<<<<<<<<<<<<<<<<<<,,,,,,,,,,,,,,,,,,,,,,,,,,,,,,,,,,:$$$$$$<<<<<<<<<<<<<<<<<<<<<<",
"<<<<<<<<<<<<<<<<<<<<<<<,,,,,,,,,,,,,,,,,,,,,,,,,,,,,,,,,,:$$$$$$<<<<<<<<<<<<<<<<<<<<<<",
"<<<<<<<<<<<<<<<<<<<<<<<,,,,,,,,,,,,,,,,,,,,,,,,,,,,,,,,,,:$$$$$$=<<<<<<<<<<<<<<<<<<<<<",
"<<<<<<<<<<<<<<<<<<<<<<,,,,,,,,,,,,,,,,,,,,,,,,,,,,,,,,,,,=$$$$$$$<<<<<<<<<<<<<<<<<<<<<",
"<<<<<<<<<<<<<<<<<<<<<<,,,,,,,,,,,,,,,,,,,,,,,,,,,,,,,,,,,=$$$$$$=<<<<<<<<<<<<<<<<<<<<<",
"<<<<<<<<<<<<<<<<<<<<<<,,,,,,,,,,,,,,,,,,,,,,,,,,,,,,,,,,,=$$$$$$$<<<<<<<<<<<<<<<<<<<<<",
"<<<<<<<<<<<<<<<<<<<<<<,,,,,,,,,,,,,,,,,,,,,,,,,,,,,,,,,,,:$$$$$$$<<<<<<<<<<<<<<<<<<<<<",
"<<<<<<<<<<<<<<<<<<<<<<,,,,,,,,,,,,,,,,,,,,,,,,,,,,,,,,,,,:$$$$$$$<<<<<<<<<<<<<<<<<<<<<",
"<<<<<<<<<<<<<<<<<<<<<<,,,,,,,,,,,,,,,,,,,,,,,,,,,,,,,,,,,=$$$$$$$<<<<<<<<<<<<<<<<<<<<<",
"<<<<<<<<<<<<<<<<<<<<<<,,,,,,,,,,,,,,,,,,,,,,,,,,,,,,,,,,,=$$$$$$$<<<<<<<<<<<<<<<<<<<<<",
"<<<<<<<<<<<<<<<<<<<<<<,,,,,,,,,,,,,,,,,,,,,,,,,,,,,,,,,,,:$$$$$$$<<<<<<<<<<<<<<<<<<<<<",
"<<<<<<<<<<<<<<<<<<<<<<,,,,,,,,,,,,,,,,,,,,,,,,,,,,,,,,,,,$$$$$$$$<<<<<<<<<<<<<<<<<<<<<",
"<<<<<<<<<<<<<<<<<<<<<<,,,,,,,,,,,,,,,,,,,,,,,,,,,,,,,,,,,=$$$$$$=<<<<<<<<<<<<<<<<<<<<<",
"<<<<<<<<<<<<<<<<<<<<<<,,,,,,,,,,,,,,,,,,,,,,,,,,,,,,,,,,,$$$$$$$=<<<<<<<<<<<<<<<<<<<<<",
"<<<<<<<<<<<<<<<<<<<<<<,,,,,,,,,,,,,,,,,,,,,,,,,,,,,,,,,,,:$$$$$$<<<<<<<<<<<<<<<<<<<<<<",
"<<<<<<<<<<<<<<<<<<<<<<<,,,,,,,,,,,,,,,,,,,,,,,,,,,,,,,,,,:$$$$$$<<<<<<<<<<<<<<<<<<<<<<",
"<<<<<<<<<<<<<<<<,,,,,,:,,,,,,,,,,,,,,,,,,,,,,,,,,,,,,,,,,:$$$$$$$$$$$$<<<<<<<<<<<<<<<<",
"<<<<<<<<<<<<<,,,,,,,,,,,,,,,,,,,,,,,,,,,,,,,,,,,,,,,,,,,,,:=$$$$$$$$$$$$$<<<<<<<<<<<<<",
"<<<<<<<<<<<<,,,,,,,,,,,,,,,,,,,,,,,,,,,,,,,,,,,,,,,,,,,,,,,,,,:=$$$$$$$$$$:<<<<<<<<<<<",
"<<<<<<<<<<<,,,,,,,,,,,,,,,,,,,,,,,,,,,,,,,,,,,,,,,,,,,,,,,,,,,,,,:$$$$$$$$$:<<<<<<<<<<",
"<<<<<<<<<<,,,,,,,,,,,,,,,,,,,,,,,,,,,,,,,,,,,,,,,,,,,,,,,,,,,,,,,,,=$$$$$$$$:<<<<<<<<<",
"<<<<<<<<<<,,,,,,,,,,,,,,,,,,,,,,,,,,,,,,,,,,,,,,,,,,,,,,,,,,,,,,,,,,,=$$$$$$$<<<<<<<<<",
"<<<<<<<<<<,,,,,,,,,,,,,,,,,,,,,,,,,,,,,,,,,,,,,,,,,,,,,,,,,,,,,,,,,,,,=$$$$$$:<<<<<<<<",
"<<<<<<<<<,,,,,,,,,,,,,,,,,,,,,,,,,,,,,,,,,,,,,,,,,,,,,,,,,,,,,,,,,,,,,:$$$$$$$<<<<<<<<",
"<<<<<<<<<,,,,,,,,,,,,,,,,,,,,,,,,,,,,,,,,,,,,,,,,,,,,,,,,,,,,,,,,,,,,,,$$$$$$$<<<<<<<<",
"<<<<<<<<<,,,,,,,,,,,,,,,,,,,,,,,,,,,,,,,,,,,,,,,,,,,,,,,,,,,,,,,,,,,,,,=$$$$$$<<<<<<<<",
"<<<<<<<<<,,,,,,,,,,,,,,,,,,,,,,,,,,,,,,,,,,,,,,,,,,,,,,,,,,,,,,,,,,,,,,:$$$$$$<<<<<<<<",
"<<<<<<<<<,,,,,,,,,,,,,,,,,,,,,,,,,,,,,,,,,,,,,,,,,,,,,,,,,,,,,,,,,,,,,,:$$$$$$<<<<<<<<",
"<<<<<<<<<,,,,,,,,,,,,,,,,,,,,,,,,,,,,,,,,,,,,,,,,,,,,,,,,,,,,,,,,,,,,,,:$$$$$$<<<<<<<<",
"<<<<<<<<<,,,,,,,,,,,,,,,,,,,,,,,,,,,,,,,,,,,,,,,,,,,,,,,,,,,,,,,,,,,,,,,$$$$$$<<<<<<<<",
"<<<<<<<<<,,,,,,,,,,,,,,,,,,,,,,,,,,,,,,,,,,,,,,,,,,,,,,,,,,,,,,,,,,,,,,,$$$$$$<<<<<<<<",
"<<<<<<<<<,,,,,,,,,,,,,,,,,,,,,,,,,,,,,,,,,,,,,,,,,,,,,,,,,,,,,,,,,,,,,,,$$$$$$<<<<<<<<",
"<<<<<<<<<,,,,,,,,,,,,,,,,,,,,,,,,,,,,,,,,,,,,,,,,,,,,,,,,,,,,,,,,,,,,,,,$$$$$$<<<<<<<<",
"<<<<<<<<<<<<<<<<<<<<<<<<<<<<<<<<<<<<<<<<<<<<<<<<<<<<<<<<<<<<<<<<<<<<<<<<<<<<<<<<<<<<<<",
"<<<<<<<<<<<<<<<<<<<<<<<<<<<<<<<<<<<<<<<<<<<<<<<<<<<<<<<<<<<<<<<<<<<<<<<<<<<<<<<<<<<<<<",
"<<<<<<<<<<<<<<<<<<<<<<<<<<<<<<<<<<<<<<<<<<<<<<<<<<<<<<<<<<<<<<<<<<<<<<<<<<<<<<<<<<<<<<",
"<<<<<<<<<<<<<<<<<<<<<<<<<<<<<<<<<<<<<<<<<<<<<<<<<<<<<<<<<<<<<<<<<<<<<<<<<<<<<<<<<<<<<<",
"<<<<<<<<<<<<<<<<<<<<<<<<<<<<<<<<<<<<<<<<<<<<<<<<<<<<<<<<<<<<<<<<<<<<<<<<<<<<<<<<<<<<<<",
"<<<<<<<<<<<<<<<<<<<<<<<<<<<<<<<<<<<<<<<<<<<<<<<<<<<<<<<<<<<<<<<<<<<<<<<<<<<<<<<<<<<<<<"
};
