/* XPM */
static const xpm_row_t white_pawn_xpm[] = {
/* columns rows colors chars-per-pixel */
"86 86 21 1 ",
"  c #00B140",
". c #828282",
"X c #838383",
"o c #848484",
"O c #888888",
"+ c #939393",
"@ c #989898",
"# c #9D9D9D",
"$ c #9F9F9F",
"% c #A7A7A7",
"& c #A9A9A9",
"* c #AFAFAF",
"= c #B7B7B7",
"- c #C0C0C0",
"; c #C5C5C5",
": c #CBCBCB",
"> c #CFCFCF",
", c #DADADA",
"< c #DBDBDB",
"1 c #DFDFDF",
"2 c #FFFFFF",
/* pixels */
"                                                                                      ",
"                                                                                      ",
"                                                                                      ",
"                                        2222222                                       ",
"                                     2222222222222                                    ",
"                                   22222222222222222                                  ",
"                                 222222222222222222222                                ",
"                                22222222222222222222222                               ",
"                               2222222222222222222222222                              ",
"                              222222222222222222222222222                             ",
"                             22222222222222222222222222222                            ",
"                             22222222222222222222222222222                            ",
"                            2222222222222222222222222222222                           ",
"                            2222222222222222222222222222222                           ",
"                           222222222222222222222222222222222                          ",
"                           222222222222222222222222222222221                          ",
"                           222222222222222222222222222222221#                         ",
"                          222222222222222222222222222222222>*                         ",
"                          222222222222222222222222222222222>#                         ",
"                          222222222222222222222222222222222>&                         ",
"                          222222222222222222222222222222222&&                         ",
"                          222222222222222222222222222222221&&                         ",
"                          22222222222222222222222222222222>&-                         ",
"                          22222222222222222222222222222222&&:                         ",
"                           222222222222222222222222222222>&&=                         ",
"                           222222222222222222222222222222&&&                          ",
"                           22222222222222222222222222222>&&&                          ",
"                            2222222222222222222222222222&&&=                          ",
"                            222222222222222222222222222>&&&                           ",
"                             2222222222222222222222222>&&&=                           ",
"                             222222222222222222222222>&&&*                            ",
"                              2222222222222222222222>&&&&                             ",
"                               22222222222222222222>&&&&                              ",
"                                222222222222222222>&&&&                               ",
"                                 2222222222222221-&&&*                                ",
"                                   222222222222>&&&&=                                 ",
"                                     22222221>&&&&#                                   ",
"                                     22222;%oo++#-                                    ",
"                                     222221&&&&&&&<                                   ",
"                                     2222221&&&&&&-                                   ",
"                                    222222221&&&&&&<                                  ",
"                                   22222222221&&&&&-                                  ",
"                                  2222222222221&&&&&>                                 ",
"                                  22222222222221&&&&&<                                ",
"                                 2222222222222222-&&&&                                ",
"                                222222222222222222>&&&-                               ",
"                               22222222222222222222>&&&-                              ",
"                              2222222222222222222222>&&&-                             ",
"                             222222222222222222222222>&&&-                            ",
"                            22222222222222222222222222>&&&-                           ",
"                          222222222222222222222222222221&&&&,                         ",
"                         22222222222222222222222222222221&&&&=                        ",
"                        2222222222222222222222222222222221&&&&:                       ",
"                        2222222222222222222222222222222222>&&&&:                      ",
"                       222222222222222222222222222222222222>&&&&=                     ",
"                      22222222222222222222222222222222222222&&&&&                     ",
"                      22222222222222222222222222222222222222>&&&&*                    ",
"                     2222222222222222222222222222222222222222&&&&&                    ",
"                     2222222222222222222222222222222222222222-&&&&                    ",
"                     2222222222222222222222222222222222222222-&&&&#                   ",
"                     2222222222222222222222222222222222222222>&&&&X                   ",
"                     2222222222222222222222222222222222222222>&&&&X                   ",
"                     2222222222222222222222222222222222222222>&&&&X                   ",
"                     2222222222222222222222222222222222222222-&&&&                    ",
"                     2222222222222222222222222222222222222222&&&&&                    ",
"               2222222222222222222222222222222222222222222222&#OO.&&&&##=             ",
"             22222222222222222222222222222222222222222222222222222>>&&&&&&=           ",
"            222222222222222222222222222222222222222222222222222222222>&&&&&=          ",
"           22222222222222222222222222222222222222222222222222222222222>&&&&&          ",
"          2222222222222222222222222222222222222222222222222222222222222>&&&&#         ",
"          22222222222222222222222222222222222222222222222222222222222222>&&&&         ",
"          222222222222222222222222222222222222222222222222222222222222222-&&&*        ",
"         22222222222222222222222222222222222222222222222222222222222222221&&&&        ",
"         22222222222222222222222222222222222222222222222222222222222222222&&&&        ",
"         22222222222222222222222222222222222222222222222222222222222222222-&&&        ",
"         22222222222222222222222222222222222222222222222222222222222222222>&&&        ",
"         22222222222222222222222222222222222222222222222222222222222222222>&&&        ",
"         222222222222222222222222222222222222222222222222222222222222222221&&&        ",
"         222222222222222222222222222222222222222222222222222222222222222221&&&        ",
"         222222222222222222222222222222222222222222222222222222222222222221&&&        ",
"         22222222222222222222222222222222222222222222222222222222222222222>&&&        ",
"         22222222222222222222222222222222222222222222222222222222222222222>&&&        ",
"                                                                                      ",
"                                                                                      ",
"                                                                                      ",
"                                                                                      "
};
