/* XPM */
static const xpm_row_t A_xpm[] = {
/* columns rows colors chars-per-pixel */
"83 97 2 1 ",
"  c #FFFFFF",
". c #00B140",
/* pixels */
"...................................................................................",
"...................................................................................",
"...................................................................................",
"...................................................................................",
"...................................................................................",
"...................................................................................",
"...................................................................................",
"...................................................................................",
"...................................................................................",
"...................................................................................",
"...................................................................................",
"...................................................................................",
"...................................................................................",
"...................................................................................",
"...................................................................................",
"...................................................................................",
"...................................................................................",
"...................................................................................",
"...................................................................................",
"...................................................................................",
"...................................................................................",
"...................................................................................",
"...................................................................................",
"...................................................................................",
"...................................................................................",
"...................................................................................",
"...................................................................................",
"...................................................................................",
"...................................................................................",
"...................................................................................",
".........................................   .......................................",
"........................................     ......................................",
"........................................     ......................................",
"........................................      .....................................",
".......................................       .....................................",
".......................................       .....................................",
".......................................        ....................................",
"......................................         ....................................",
"......................................         ....................................",
"......................................         ....................................",
"......................................          ...................................",
".....................................     .     ...................................",
".....................................     .     ...................................",
".....................................     ..     ..................................",
"....................................      ..     ..................................",
"....................................     ...     ..................................",
"....................................     ...     ..................................",
"...................................      ....     .................................",
"...................................      ....     .................................",
"...................................     .....     .................................",
"...................................                ................................",
"..................................                 ................................",
"..................................                 ................................",
"..................................                 ................................",
".................................      ........     ...............................",
".................................     .........     ...............................",
".................................     .........     ...............................",
".................................     ..........     ..............................",
".................................     ..........     ..............................",
".................................    ............   ...............................",
"...................................................................................",
"...................................................................................",
"...................................................................................",
"...................................................................................",
"...................................................................................",
"...................................................................................",
"...................................................................................",
"...................................................................................",
"...................................................................................",
"...................................................................................",
"...................................................................................",
"...................................................................................",
"...................................................................................",
"...................................................................................",
"...................................................................................",
"...................................................................................",
"...................................................................................",
"...................................................................................",
"...................................................................................",
"...................................................................................",
"...................................................................................",
"...................................................................................",
"...................................................................................",
"...................................................................................",
"...................................................................................",
"...................................................................................",
"...................................................................................",
"...................................................................................",
"...................................................................................",
"...................................................................................",
"...................................................................................",
"...................................................................................",
"...................................................................................",
"...................................................................................",
"...................................................................................",
"...................................................................................",
"..................................................................................."
};
