/* XPM */
static const xpm_row_t left_over_button_xpm[] = {
/* columns rows colors chars-per-pixel */
"77 76 4 1 ",
"  c #0070BF",
". c #43ABEA",
"X c #65C8FF",
"o c #00B140",
/* pixels */
"oooooooooooooooooo                                         oooooooooooooooooo",
"oooooooooooooo                                                 oooooooooooooo",
"ooooooooooo                                                       ooooooooooo",
"oooooooooo                                                          ooooooooo",
"oooooooo                                                             oooooooo",
"ooooooo                                                               ooooooo",
"oooooo                                                                 oooooo",
"ooooo                                                                   ooooo",
"oooo                                                                     oooo",
"ooo                                                                      oooo",
"ooo                                                                       ooo",
"oo                                                                         oo",
"oo                                                                         oo",
"oo                                                                         oo",
"o                                                                           o",
"o                                                                           o",
"o                                                                           o",
"o                                                                           o",
"                              .                                              ",
"                             .X                                              ",
"                            .XX                                              ",
"                           .XXX                                              ",
"                          .XXXX                                              ",
"                         .XXXXX                                              ",
"                        .XXXXXX                                              ",
"                       .XXXXXXX                                              ",
"                      .XXXXXXXX                                              ",
"                     .XXXXXXXXX................................              ",
"                    .XXXXXXXXXXXXXXXXXXXXXXXXXXXXXXXXXXXXXXXXXX              ",
"                   .XXXXXXXXXXXXXXXXXXXXXXXXXXXXXXXXXXXXXXXXXXX              ",
"                  .XXXXXXXXXXXXXXXXXXXXXXXXXXXXXXXXXXXXXXXXXXXX              ",
"                 .XXXXXXXXXXXXXXXXXXXXXXXXXXXXXXXXXXXXXXXXXXXXX              ",
"                .XXXXXXXXXXXXXXXXXXXXXXXXXXXXXXXXXXXXXXXXXXXXXX              ",
"               .XXXXXXXXXXXXXXXXXXXXXXXXXXXXXXXXXXXXXXXXXXXXXXX              ",
"              .XXXXXXXXXXXXXXXXXXXXXXXXXXXXXXXXXXXXXXXXXXXXXXXX              ",
"             .XXXXXXXXXXXXXXXXXXXXXXXXXXXXXXXXXXXXXXXXXXXXXXXXX              ",
"            .XXXXXXXXXXXXXXXXXXXXXXXXXXXXXXXXXXXXXXXXXXXXXXXXXX              ",
"            .XXXXXXXXXXXXXXXXXXXXXXXXXXXXXXXXXXXXXXXXXXXXXXXXXX              ",
"             .XXXXXXXXXXXXXXXXXXXXXXXXXXXXXXXXXXXXXXXXXXXXXXXXX              ",
"              .XXXXXXXXXXXXXXXXXXXXXXXXXXXXXXXXXXXXXXXXXXXXXXXX              ",
"               .XXXXXXXXXXXXXXXXXXXXXXXXXXXXXXXXXXXXXXXXXXXXXXX              ",
"                .XXXXXXXXXXXXXXXXXXXXXXXXXXXXXXXXXXXXXXXXXXXXXX              ",
"                 .XXXXXXXXXXXXXXXXXXXXXXXXXXXXXXXXXXXXXXXXXXXXX              ",
"                  .XXXXXXXXXXXXXXXXXXXXXXXXXXXXXXXXXXXXXXXXXXXX              ",
"                   .XXXXXXXXXXXXXXXXXXXXXXXXXXXXXXXXXXXXXXXXXXX              ",
"                    .XXXXXXXXXXXXXXXXXXXXXXXXXXXXXXXXXXXXXXXXXX              ",
"                     .XXXXXXXXX................................              ",
"                      .XXXXXXXX                                              ",
"                       .XXXXXXX                                              ",
"                        .XXXXXX                                              ",
"                         .XXXXX                                              ",
"                          .XXXX                                              ",
"                           .XXX                                              ",
"                            .XX                                              ",
"                             .X                                              ",
"                              .                                              ",
"                                                                             ",
"                                                                             ",
"o                                                                           o",
"o                                                                           o",
"o                                                                           o",
"o                                                                           o",
"oo                                                                         oo",
"oo                                                                         oo",
"oo                                                                         oo",
"ooo                                                                       ooo",
"oooo                                                                      ooo",
"oooo                                                                     oooo",
"ooooo                                                                   ooooo",
"oooooo                                                                 oooooo",
"ooooooo                                                               ooooooo",
"oooooooo                                                             oooooooo",
"ooooooooo                                                          oooooooooo",
"ooooooooooo                                                       ooooooooooo",
"oooooooooooooo                                                 oooooooooooooo",
"oooooooooooooooooo                                         oooooooooooooooooo"
};
