/* XPM */
static const xpm_row_t F_xpm[] = {
/* columns rows colors chars-per-pixel */
"84 97 2 1 ",
"  c #FFFFFF",
". c #00B140",
/* pixels */
"....................................................................................",
"....................................................................................",
"....................................................................................",
"....................................................................................",
"....................................................................................",
"....................................................................................",
"....................................................................................",
"....................................................................................",
"....................................................................................",
"....................................................................................",
"....................................................................................",
"....................................................................................",
"....................................................................................",
"....................................................................................",
"....................................................................................",
"....................................................................................",
"....................................................................................",
"....................................................................................",
"....................................................................................",
"....................................................................................",
"....................................................................................",
"....................................................................................",
"....................................................................................",
"....................................................................................",
"....................................................................................",
"....................................................................................",
"....................................................................................",
"....................................................................................",
"....................................................................................",
"....................................................................................",
"................................                    ................................",
"................................                     ...............................",
"................................                     ...............................",
"................................                    ................................",
"................................      ..............................................",
"................................      ..............................................",
"................................      ..............................................",
"................................      ..............................................",
"................................      ..............................................",
"................................      ..............................................",
"................................                ....................................",
"................................                 ...................................",
"................................                 ...................................",
"................................                ....................................",
"................................      ..............................................",
"................................      ..............................................",
"................................      ..............................................",
"................................      ..............................................",
"................................      ..............................................",
"................................      ..............................................",
"................................      ..............................................",
"................................      ..............................................",
"................................      ..............................................",
"................................      ..............................................",
"................................      ..............................................",
"................................      ..............................................",
"................................      ..............................................",
"................................      ..............................................",
".................................     ..............................................",
".................................    ...............................................",
"....................................................................................",
"....................................................................................",
"....................................................................................",
"....................................................................................",
"....................................................................................",
"....................................................................................",
"....................................................................................",
"....................................................................................",
"....................................................................................",
"....................................................................................",
"....................................................................................",
"....................................................................................",
"....................................................................................",
"....................................................................................",
"....................................................................................",
"....................................................................................",
"....................................................................................",
"....................................................................................",
"....................................................................................",
"....................................................................................",
"....................................................................................",
"....................................................................................",
"....................................................................................",
"....................................................................................",
"....................................................................................",
"....................................................................................",
"....................................................................................",
"....................................................................................",
"....................................................................................",
"....................................................................................",
"....................................................................................",
"....................................................................................",
"....................................................................................",
"....................................................................................",
"....................................................................................",
"....................................................................................",
"...................................................................................."
};
